<?xml version="1.0" standalone="no"?>
<!DOCTYPE svg PUBLIC "-//W3C//DTD SVG 1.1//EN" "http://www.w3.org/Graphics/SVG/1.1/DTD/svg11.dtd" >
<svg xmlns="http://www.w3.org/2000/svg">
<metadata></metadata>
<defs>
<font id="berthold_akzidenz_groteskMdIt" horiz-adv-x="1150" >
<font-face units-per-em="2048" ascent="1638" descent="-410" />
<missing-glyph horiz-adv-x="555" />
<glyph unicode="&#xfb01;" d="M78 -2l194 844h-163l41 176h161l11 41q18 74 30.5 123t24.5 82.5t26.5 55t34.5 42.5q55 57 126 73.5t149 16.5q59 0 98 -4t63 -8l-49 -207q-20 2 -37.5 3t-42.5 1q-49 0 -77.5 -9t-47 -29.5t-28.5 -52.5t-21 -77l-10 -51h215l-39 -176h-217l-194 -844h-248zM680 -2 l235 1020h246l-235 -1020h-246zM956 1196l58 250h246l-58 -250h-246z" />
<glyph unicode="&#xfb02;" d="M78 -2l194 844h-163l41 176h161l11 41q18 74 30.5 123t24.5 82.5t26.5 55t34.5 42.5q55 57 126 73.5t149 16.5q59 0 98 -4t63 -8l-49 -207q-20 2 -37.5 3t-42.5 1q-49 0 -77.5 -9t-47 -29.5t-28.5 -52.5t-21 -77l-10 -51h215l-39 -176h-217l-194 -844h-248zM680 -2 l334 1448h248l-334 -1448h-248z" />
<glyph horiz-adv-x="2048" />
<glyph horiz-adv-x="2048" />
<glyph unicode="&#xd;" horiz-adv-x="555" />
<glyph unicode=" "  horiz-adv-x="555" />
<glyph unicode="&#x09;" horiz-adv-x="555" />
<glyph unicode="&#xa0;" horiz-adv-x="555" />
<glyph unicode="!" horiz-adv-x="598" d="M106 0l64 276h270l-63 -276h-271zM270 403l37 422l144 621h260l-140 -608l-174 -435h-127z" />
<glyph unicode="&#x22;" horiz-adv-x="811" d="M203 1413q0 31 12 54.5t31.5 38t43 21.5t46.5 7q39 0 67.5 -17.5t42.5 -46.5q10 -20 10.5 -39.5t-1.5 -37.5l-97 -531h-55l-96 506q-2 10 -3 21.5t-1 23.5zM631 1413q0 63 43 92t90 29q37 0 66.5 -17.5t41.5 -46.5q10 -20 10.5 -39.5t-1.5 -37.5l-97 -531h-55l-96 506 q0 10 -1 21.5t-1 23.5z" />
<glyph unicode="#" horiz-adv-x="1366" d="M154 438v203h274l27 195h-256v204h282l56 406h213l-58 -406h201l55 406h207l-55 -406h241v-204h-268l-29 -195h252v-203h-276l-64 -438h-206l63 438h-203l-61 -438h-209l61 438h-247zM637 641h203l26 195h-202z" />
<glyph unicode="$" horiz-adv-x="1193" d="M47 369l238 73q4 -23 9 -45t21 -51q23 -45 64 -82t102 -51l97 418q-33 12 -91.5 35.5t-116 67.5t-99.5 111.5t-42 164.5q0 74 34 147.5t99.5 133t165 95t232.5 31.5l37 166h133l-41 -176q76 -14 145.5 -49t122.5 -86q53 -53 74.5 -99.5t32.5 -74.5l-234 -82 q-16 63 -60 111.5t-130 68.5l-86 -375q61 -25 128.5 -55.5t125 -76.5t94.5 -111.5t37 -159.5q0 -106 -46 -189.5t-121 -139.5t-169 -85t-189 -29h-27.5t-27.5 2l-45 -190h-131l47 205q-47 6 -106.5 31.5t-115.5 71.5t-101.5 113.5t-59.5 160.5zM489 1032q0 -39 14.5 -66.5 t36 -46t46 -29.5t47.5 -20l76 334q-63 -4 -105.5 -22.5t-68 -44t-36 -54t-10.5 -51.5zM610 199q55 -4 102.5 10t83 42t55 65.5t19.5 82.5q0 41 -16 71t-41 51.5t-55.5 36.5t-59.5 28z" />
<glyph unicode="%" horiz-adv-x="1792" d="M160 801q0 47 7 110.5t24.5 131t47 133t74.5 118t106.5 85t143.5 32.5q109 0 168.5 -46t87 -105.5t31.5 -114.5t4 -76q0 -51 -7.5 -101.5t-17.5 -99.5q-18 -84 -51 -161.5t-92 -139.5q-53 -53 -109.5 -74.5t-117.5 -21.5q-59 0 -103.5 15.5t-76.5 37.5q-39 27 -62.5 60.5 t-36 70.5t-16.5 74t-4 72zM336 793q0 -68 24.5 -117t92.5 -49q78 0 124.5 71.5t75.5 204.5q16 78 20.5 127t4.5 64q0 68 -26.5 115.5t-92.5 47.5t-108.5 -59t-68.5 -138t-36 -156t-10 -111zM436 47l953 1370l102 -69l-950 -1371zM1071 313q0 47 7 109.5t24.5 130.5 t47.5 134.5t75 118.5t106.5 84t143.5 32q109 0 168 -46.5t86.5 -104.5t31.5 -114.5t4 -76.5q0 -49 -7 -99.5t-17 -99.5q-18 -84 -51 -162t-93 -139q-53 -53 -108 -74.5t-119 -21.5q-47 0 -93 12t-87 41q-39 27 -62.5 60.5t-36 70.5t-16.5 74t-4 71zM1247 305 q0 -68 24.5 -117t92.5 -49q80 0 126 76t75 201q18 82 21 131t3 59q0 68 -26.5 115t-92.5 47q-45 0 -77.5 -27.5t-58 -71.5t-42 -98.5t-27 -105.5t-14.5 -94t-4 -66z" />
<glyph unicode="&#x26;" horiz-adv-x="1366" d="M57 346q0 66 19.5 117t47.5 88t54.5 60.5t42.5 35.5q23 18 44.5 31.5t50 29t71.5 37t111 52.5q-45 119 -45 221q0 84 28.5 146.5t76.5 103.5t108.5 61.5t124.5 20.5q74 0 131 -23.5t95 -61.5t58.5 -88.5t20.5 -101.5q0 -35 -11.5 -76t-44 -86t-94 -93t-162.5 -99 q43 -80 71 -130t47.5 -84t35.5 -57.5t39 -52.5q35 41 63.5 90.5t55.5 141.5h241q-10 -43 -30.5 -94.5t-48 -104.5t-62.5 -103.5t-76 -88.5q25 -20 54.5 -27.5t60.5 -7.5q23 0 41 2t33 4l-49 -213q-16 -2 -37 -4t-47 -2q-102 0 -158.5 31.5t-89.5 68.5q-31 -18 -73 -39.5 t-94 -40t-115.5 -30t-135.5 -11.5q-121 0 -207 33t-140 87t-80 122t-26 135zM307 358q0 -31 12.5 -63.5t39 -59t67.5 -43t98 -16.5q35 0 110 14.5t157 63.5q-35 45 -59.5 84t-48.5 80t-49.5 88t-58.5 108l-94 -49q-27 -12 -57.5 -30.5t-56 -43t-43 -57.5t-17.5 -76z M676 1030q0 -35 11.5 -67.5t21.5 -61.5q96 47 135 91t39 91q0 10 -4.5 25.5t-13.5 29t-25.5 22.5t-40.5 9q-51 0 -87 -35.5t-36 -103.5z" />
<glyph unicode="'" horiz-adv-x="425" d="M205 1413q0 63 43 92t90 29q82 0 108 -64q10 -20 10.5 -39.5t-1.5 -37.5l-97 -531h-55l-96 506q0 10 -1 21.5t-1 23.5z" />
<glyph unicode="(" horiz-adv-x="811" d="M260 436q0 156 49 303.5t142.5 282.5t227.5 255t304 218l61 -104q-61 -41 -130.5 -101.5t-147.5 -173.5q-82 -117 -131 -234.5t-74.5 -224t-34 -195.5t-8.5 -149q0 -104 13.5 -182t35 -136t48 -101.5t53.5 -77.5l-80 -92q-43 47 -100.5 114.5t-107.5 155.5t-85 197.5 t-35 244.5z" />
<glyph unicode=")" horiz-adv-x="811" d="M-139 -172q59 41 128.5 101.5t149.5 172.5q82 117 131 235t75 224.5t34 195.5t8 148q0 104 -13.5 182t-35 136.5t-48 101.5t-52.5 80l79 90q43 -47 100.5 -114.5t107.5 -155.5t85 -197.5t35 -245.5q0 -156 -50 -304t-143.5 -283.5t-227.5 -254t-302 -216.5z" />
<glyph unicode="*" horiz-adv-x="724" d="M207 1210l80 133l153 -96l56 -67l-19 100l39 172l156 -29l-39 -161l-58 -84l82 45l187 24l16 -151l-192 -29l-93 33l84 -72l86 -154l-139 -71l-90 178v94l-39 -94l-131 -145l-113 106l134 133l112 45h-112z" />
<glyph unicode="+" horiz-adv-x="1366" d="M141 492v208h494v494h211v-494h491v-208h-491v-492h-211v492h-494z" />
<glyph unicode="," horiz-adv-x="512" d="M-25 -289l31 129q68 6 90.5 43t40.5 117h-110l63 276h270l-63 -276q-10 -43 -18.5 -76t-18.5 -59.5t-24.5 -47t-34.5 -40.5q-49 -47 -100.5 -57.5t-75.5 -10.5h-21.5t-28.5 2z" />
<glyph unicode="-" horiz-adv-x="768" d="M102 487l56 236h594l-54 -236h-596z" />
<glyph unicode="." horiz-adv-x="512" d="M27 0l63 276h270l-63 -276h-270z" />
<glyph unicode="/" horiz-adv-x="854" d="M-84 0l903 1446h258l-899 -1446h-262z" />
<glyph unicode="0" d="M111 479q0 72 11 170.5t38.5 202.5t73 205.5t114 182.5t162.5 130t219 49q74 0 137.5 -18.5t110.5 -46.5q113 -72 155 -194t42 -263q0 -78 -10.5 -155.5t-28.5 -155.5q-29 -129 -79 -250t-143 -215q-78 -82 -162.5 -115t-185.5 -33q-92 0 -159.5 23.5t-114.5 56.5 q-55 39 -90 89.5t-55.5 105.5t-27.5 113.5t-7 117.5zM367 467q0 -55 9 -104.5t31.5 -86t59.5 -58t92 -21.5q63 0 112.5 31.5t88.5 89t67.5 139.5t51.5 182q29 127 34 204t5 93q0 53 -7.5 88t-17.5 61q-18 43 -45 67t-51.5 34t-45 12t-26.5 2q-66 0 -117 -37t-86 -92 q-33 -49 -61.5 -125t-49 -158.5t-32.5 -167.5t-12 -153z" />
<glyph unicode="1" d="M293 973l39 166q41 2 106.5 9t136.5 48q10 6 32 20.5t46.5 38t49 58.5t40.5 80h226l-322 -1393h-252l180 780q14 61 18.5 86t4.5 43q0 47 -31.5 56.5t-101.5 7.5h-172z" />
<glyph unicode="2" d="M25 0l49 207q68 49 159 116.5t184 142.5t178 150.5t140 137.5q82 94 105.5 156.5t23.5 103.5q0 78 -50 127t-124 49q-66 0 -129 -42t-98 -118q-16 -37 -23.5 -69.5t-13.5 -73.5l-250 39q2 25 9.5 60.5t21.5 78.5t37.5 88t56.5 86q45 53 98.5 88t108.5 55.5t108.5 28.5 t98.5 8q104 0 183 -31.5t132 -86t81 -124t28 -145.5q0 -72 -20.5 -133t-50.5 -110.5t-62.5 -86t-57.5 -61.5q-41 -41 -100.5 -94t-129 -110.5t-142 -112t-138.5 -99.5h578l-51 -225h-940z" />
<glyph unicode="3" d="M23 422l262 27q-2 -78 23.5 -127.5t62.5 -78t77.5 -38.5t71.5 -10q57 0 105.5 19t83 52t54 77t19.5 93q0 92 -57 145.5t-195 53.5q-14 0 -24 -1t-21 -1l50 211q35 -4 49 -4h32q129 0 196 57t67 137q0 68 -49.5 118t-141.5 50q-35 0 -69.5 -9t-69.5 -34q-53 -37 -71.5 -76 t-28.5 -79l-248 55q10 27 24.5 68.5t42.5 82.5q59 92 172 150.5t269 58.5q104 0 184 -29.5t134 -78.5t82 -111.5t28 -130.5q0 -74 -29 -132t-73 -101t-97 -71t-102 -38l-37 -6l32 -6q31 -6 60 -17.5t53 -29.5q39 -31 68.5 -89.5t29.5 -140.5q0 -80 -31.5 -162.5t-97 -150.5 t-165 -110t-236.5 -42q-109 0 -185.5 26t-125.5 60q-47 35 -80 80t-53.5 94.5t-31.5 97.5t-13 91z" />
<glyph unicode="4" d="M70 330l55 239l721 824h303l-197 -852h183l-50 -211h-182l-76 -330h-249l75 330h-583zM354 541h348l146 577z" />
<glyph unicode="5" d="M84 354l266 21q4 -16 13.5 -45t31 -56.5t60.5 -49t102 -21.5q68 0 121 27.5t90 72.5t56.5 102.5t19.5 114.5q0 49 -16.5 90t-45 71t-67.5 47t-82 17q-78 0 -137.5 -43t-96.5 -112h-223l246 803h762l-51 -224h-551l-90 -286q20 12 80.5 39.5t156.5 27.5q86 0 155.5 -31.5 t119 -87t76 -132t26.5 -167.5q0 -96 -34 -194t-104.5 -180t-177 -133.5t-253.5 -51.5q-72 0 -147 18.5t-138.5 61.5t-109.5 117t-58 184z" />
<glyph unicode="6" d="M143 508q0 88 16.5 189.5t51.5 202.5t88 194.5t127 166t168 115.5t211 43q98 0 172 -29.5t126 -76.5t83 -105.5t43 -113.5l-275 -43q-4 16 -12 41.5t-26.5 49t-49 40t-80.5 16.5q-74 0 -129 -39t-95 -97t-66.5 -125t-42.5 -122q59 49 131.5 72.5t150.5 23.5 q98 0 172 -36.5t123 -96t72.5 -134.5t23.5 -152q0 -80 -31.5 -171.5t-97 -168t-166 -128t-237.5 -51.5q-86 0 -167 29t-140 88q-53 51 -82 113.5t-43.5 123t-16.5 108.5t-2 73zM403 438q0 -106 58.5 -177t159.5 -71q49 0 90 18.5t70.5 48.5t49 67.5t29.5 78.5q8 33 8 74 q0 55 -17 98t-47 71t-69 42t-82 14q-53 0 -98 -20t-79 -55t-53.5 -84t-19.5 -105z" />
<glyph unicode="7" d="M203 1167l53 226h979l-55 -240q-111 -100 -214.5 -233.5t-190.5 -284t-152.5 -313t-102.5 -322.5h-315q45 180 132 359.5t187.5 336t201.5 279.5t175 192h-698z" />
<glyph unicode="8" d="M78 387q0 72 21.5 136.5t62.5 114.5t99 86t130 50q-49 33 -77.5 70t-44 72.5t-19.5 67.5t-4 52q0 59 25.5 127t81 124t144.5 94t218 38q102 0 189 -24.5t149.5 -71.5t98.5 -114.5t36 -153.5q0 -68 -22.5 -124.5t-60.5 -100.5t-88.5 -73.5t-103.5 -41.5q49 -23 83 -57.5 t56.5 -75.5t33 -85t10.5 -87q0 -27 -5.5 -66t-22.5 -85t-49 -93t-85 -88q-84 -66 -177 -85.5t-179 -19.5q-106 0 -197.5 28t-159 81t-105.5 130t-38 175zM344 408q0 -37 15.5 -74t45 -65.5t74.5 -47t107 -18.5q59 0 102 16.5t71.5 41t45 54t22.5 56.5q2 10 3 22.5t1 22.5 q0 33 -13 69.5t-41.5 67.5t-77 51.5t-115.5 20.5q-63 0 -108.5 -20.5t-75 -52.5t-43 -70t-13.5 -74zM506 1018q0 -84 56 -132t145 -48q78 0 139.5 38.5t79.5 116.5q2 10 3 21.5t1 21.5q0 45 -19.5 78t-50.5 53.5t-67.5 30.5t-71.5 10q-43 0 -82 -13t-68.5 -39t-47 -60.5 t-17.5 -77.5z" />
<glyph unicode="9" d="M55 299l275 43q2 -12 10 -36.5t26.5 -49.5t49 -43t82.5 -18q74 0 129 38.5t95 97t66.5 125t42.5 122.5q-59 -49 -131.5 -73t-150.5 -24q-98 0 -172 37t-122 96.5t-72.5 134t-24.5 152.5q0 80 31.5 171t97 168t166 128t237.5 51q86 0 167 -28.5t140 -87.5q53 -53 82 -116 t43.5 -122t16.5 -107.5t2 -72.5q0 -88 -16.5 -189.5t-51.5 -203t-88 -194.5t-126 -166t-168 -116t-212 -43q-98 0 -172 30t-126 78t-82.5 105.5t-43.5 112.5zM416 915q0 -55 17.5 -98t47 -70.5t68.5 -42t82 -14.5q51 0 97 20.5t80 55.5t53.5 84t19.5 104q0 106 -58.5 177 t-158.5 71q-49 0 -90.5 -18.5t-71 -48t-50 -68.5t-28.5 -78q-8 -33 -8 -74z" />
<glyph unicode=":" horiz-adv-x="598" d="M113 0l63 276h270l-63 -276h-270zM289 766l63 276h271l-64 -276h-270z" />
<glyph unicode=";" horiz-adv-x="598" d="M61 -285l29 125q33 2 54.5 13.5t36 30t23.5 47t19 69.5h-112l65 276h270l-63 -276q-10 -49 -19.5 -85t-23.5 -65q-39 -80 -104.5 -110.5t-120.5 -30.5q-29 0 -54 6zM289 766l63 276h271l-64 -276h-270z" />
<glyph unicode="&#x3c;" horiz-adv-x="1366" d="M76 614v213l1366 625v-231l-1084 -500l1084 -498v-229z" />
<glyph unicode="=" horiz-adv-x="1366" d="M66 299v211h1366v-211h-1366zM66 684v211h1366v-211h-1366z" />
<glyph unicode="&#x3e;" horiz-adv-x="1366" d="M76 -6v229l1081 498l-1081 500v231l1366 -625v-213z" />
<glyph unicode="?" horiz-adv-x="1110" d="M233 1016q20 98 54.5 160.5t56.5 93.5q55 74 120.5 112.5t127 57t112 21.5t72.5 3q139 0 231.5 -40t146.5 -97t76.5 -122.5t22.5 -114.5q0 -43 -10 -80t-26 -70q-16 -29 -33 -51.5t-38.5 -43t-48 -42t-61.5 -45.5l-96 -74q-51 -39 -81 -62.5t-46 -39t-24.5 -27.5 t-16.5 -29q-8 -16 -16 -40.5t-25 -82.5h-227l24 107q14 59 25.5 95t32 65.5t54.5 60.5t93 78l90 72q37 29 64.5 51t46 43.5t28 46.5t9.5 55q0 18 -8.5 46t-31 53.5t-63.5 45t-104 19.5q-78 0 -141.5 -35t-102.5 -102q-23 -39 -29 -74t-10 -69zM393 0l64 276h270l-63 -276 h-271z" />
<glyph unicode="@" horiz-adv-x="1835" d="M217 479q0 197 71.5 374t197.5 312t299 214t374 79q141 0 255 -44t193 -123t120.5 -188.5t41.5 -238.5q0 -139 -39.5 -270t-106.5 -232.5t-154 -162t-179 -60.5q-29 0 -48 5.5t-34 11.5q-31 14 -49 32.5t-28.5 39t-13.5 39t-5 30.5q-10 -14 -32.5 -41t-57.5 -52.5 t-81 -45t-103 -19.5q-55 0 -105.5 20.5t-88.5 62.5t-60.5 106.5t-22.5 150.5q0 109 34 214.5t92 188.5t139 133t173 50q55 0 95.5 -17.5t66 -42t41 -50t23.5 -40.5l24 107h162l-68 -317q-23 -100 -34 -163t-16 -99.5t-6 -53t-1 -24.5q0 -29 9.5 -53.5t41.5 -24.5 q39 0 89.5 46t94.5 125t73.5 182t29.5 218q0 127 -42 215t-109.5 143.5t-153.5 80t-174 24.5q-158 0 -300.5 -67.5t-251 -182.5t-172 -266.5t-63.5 -321.5t61.5 -285.5t156 -185t209 -99.5t219.5 -30q90 0 168.5 16.5t145 42t121 57.5t97.5 60q53 37 86 67t57 54l82 -102 q-43 -43 -112.5 -99.5t-163.5 -108.5t-213 -88t-262 -36q-131 0 -271.5 39t-256 126t-190.5 226t-75 342zM748 489q0 -72 21.5 -110.5t47 -57t49 -21.5t29.5 -3q43 0 89 27.5t81 74.5q29 37 48.5 81t30.5 87t16 81t5 65q0 98 -47 146t-106 48q-61 0 -110.5 -40t-83.5 -101 t-52 -135t-18 -142z" />
<glyph unicode="A" horiz-adv-x="1323" d="M-53 0l827 1448h303l156 -1448h-272l-29 301h-529l-159 -301h-297zM528 530h385l-47 644z" />
<glyph unicode="B" horiz-adv-x="1366" d="M47 0l334 1446h461q102 0 182 -6t150 -35q74 -35 131 -105.5t57 -175.5q0 -51 -14.5 -107t-48 -107.5t-88 -91.5t-134.5 -60l-26 -4l20 -4q49 -8 93 -36t76 -69t50.5 -95t18.5 -116q0 -27 -6.5 -68.5t-26 -90t-55 -97.5t-97.5 -88q-49 -33 -102 -50t-113.5 -26.5 t-129 -11.5t-146.5 -2h-586zM377 238h264q102 0 165.5 5t117.5 33q59 31 84.5 79t25.5 96q0 41 -15 77.5t-42 63.5q-47 47 -106.5 55t-151.5 8h-246zM524 870h205q53 0 93 1t72 5.5t57.5 13.5t49.5 25q47 31 69 73t22 87q0 59 -24 87t-46 38q-16 8 -31.5 12.5t-37 6.5 t-53.5 3t-81 1h-215z" />
<glyph unicode="C" horiz-adv-x="1409" d="M156 575q0 94 17 198t55 204t97.5 191.5t144.5 160t195.5 108.5t252.5 40q78 0 139 -11.5t109 -30t82 -40t57 -39.5q55 -47 87.5 -99.5t49 -102.5t21.5 -94t7 -71l-264 -47q0 18 -1 36.5t-5 45.5q-10 70 -41 113t-71.5 67.5t-85 32.5t-82.5 8q-96 0 -170 -33.5 t-127.5 -89t-89 -125t-57 -140.5t-31 -136.5t-9.5 -110.5q0 -102 25.5 -177t71 -124t105.5 -72.5t130 -23.5q100 0 170 36t116 85t72.5 99t38.5 81l238 -98q-45 -123 -115.5 -209t-157 -138.5t-183.5 -76t-195 -23.5q-49 0 -111.5 8.5t-129.5 32t-130.5 65.5t-113.5 108.5 t-80.5 163.5t-30.5 228z" />
<glyph unicode="D" horiz-adv-x="1492" d="M47 0l334 1446h276q94 0 169 -1t136.5 -6t111.5 -14.5t97 -27.5q113 -43 176.5 -120t94.5 -160t38 -157.5t7 -117.5q0 -209 -76 -375t-186 -272q-76 -72 -152 -110t-154.5 -56.5t-161.5 -22.5t-171 -6h-539zM375 238h57q117 0 202 2t149.5 12t115.5 30.5t100 59.5 q63 49 104.5 114.5t65 134t32.5 134.5t9 113q0 213 -125 303q-72 49 -173 58t-242 9h-70z" />
<glyph unicode="E" horiz-adv-x="1280" d="M47 0l334 1446h983l-53 -236h-717l-80 -342h682l-53 -231h-682l-92 -404h823l-53 -233h-1092z" />
<glyph unicode="F" horiz-adv-x="1110" d="M47 0l334 1446h983l-55 -238h-711l-90 -385h666l-54 -231h-665l-138 -592h-270z" />
<glyph unicode="G" horiz-adv-x="1536" d="M154 561q0 154 53 316.5t157.5 296t257 218.5t351.5 85q98 0 200.5 -28t176.5 -81q78 -57 124 -141t68 -178l-268 -62q-4 27 -16.5 71t-43 86t-88 72.5t-151.5 30.5q-131 0 -231.5 -66.5t-168 -167t-101.5 -217t-34 -216.5q0 -86 24.5 -157t71 -121t112 -76.5 t145.5 -26.5q104 0 169.5 30.5t100.5 63.5q29 29 65.5 85t55.5 152h-383l53 232h635l-176 -762h-238l33 98q-29 -23 -63.5 -45t-79.5 -40.5t-103.5 -31t-132.5 -12.5q-133 0 -238.5 42t-181.5 120t-115.5 186.5t-39.5 243.5z" />
<glyph unicode="H" horiz-adv-x="1449" d="M47 0l334 1448h272l-131 -569h629l131 569h272l-333 -1448h-273l150 649h-629l-150 -649h-272z" />
<glyph unicode="I" horiz-adv-x="555" d="M49 0l334 1446h272l-333 -1446h-273z" />
<glyph unicode="J" horiz-adv-x="811" d="M-49 0l55 244q23 -4 66 -12.5t104 -8.5q70 0 112 18.5t69.5 61.5t45 110.5t39.5 166.5l201 868h270l-223 -969q-18 -72 -31.5 -124t-27 -92t-28.5 -72.5t-38 -63.5q-25 -35 -56.5 -62.5t-76.5 -47t-107.5 -30t-148.5 -10.5q-55 0 -112.5 6.5t-112.5 16.5z" />
<glyph unicode="K" horiz-adv-x="1323" d="M47 0l334 1446h268l-153 -664l675 664h353l-629 -578l389 -868h-303l-289 692l-274 -246l-103 -446h-268z" />
<glyph unicode="L" horiz-adv-x="1067" d="M47 0l334 1448h272l-278 -1208h620l-53 -240h-895z" />
<glyph unicode="M" horiz-adv-x="1748" d="M47 0l334 1446h395l72 -1092l606 1092h397l-333 -1446h-263l287 1196l-647 -1196h-233l-89 1196l-262 -1196h-264z" />
<glyph unicode="N" horiz-adv-x="1449" d="M47 0l334 1446h244l442 -1067l227 1067h260l-333 -1446h-242l-442 1061l-226 -1061h-264z" />
<glyph unicode="O" horiz-adv-x="1536" d="M154 588q0 88 17 188.5t56 199.5t99.5 189t146.5 160t199.5 111t259.5 41q166 0 279.5 -55.5t185 -144.5t103.5 -199.5t32 -219.5q0 -59 -7.5 -117.5t-19.5 -115.5q-33 -137 -94 -255t-149 -204q-68 -66 -138.5 -104.5t-138 -59t-128 -27t-107.5 -6.5q-178 0 -293 60.5 t-182.5 151.5t-94 199.5t-26.5 207.5zM430 594q0 -188 95.5 -285.5t244.5 -97.5q90 0 158.5 28.5t119 72.5t84 98.5t55 105.5t34 93t16.5 65q10 47 17.5 96t7.5 96q0 78 -19.5 146.5t-60.5 119t-104.5 80t-151.5 29.5q-23 0 -57.5 -3t-76.5 -16.5t-88.5 -40t-89.5 -71.5 q-37 -41 -70.5 -101.5t-59 -129t-40 -143t-14.5 -142.5z" />
<glyph unicode="P" horiz-adv-x="1236" d="M47 0l334 1448h393q125 0 207 -6t147 -35q109 -49 161 -145.5t52 -214.5q0 -115 -48 -228.5t-146 -193.5q-51 -41 -104.5 -63.5t-109.5 -34t-116.5 -13.5t-124.5 -2h-256l-117 -512h-272zM489 743h158q96 0 143.5 3.5t81.5 13.5q55 16 92 48t60 71t32 78.5t9 70.5 q0 23 -8 58.5t-43 70.5q-20 20 -42 31.5t-50.5 16.5t-68.5 7t-95 2h-158z" />
<glyph unicode="Q" horiz-adv-x="1579" d="M147 592q0 113 30 244t91 245q51 96 112.5 163t126 111t128 68.5t121 37t104.5 14.5t78 2q76 0 166 -15.5t178 -75.5q31 -20 74 -60t83 -103.5t67.5 -151.5t27.5 -205q0 -16 -3 -71.5t-16.5 -129t-41 -157.5t-74.5 -160q45 -47 103.5 -97t156.5 -108l-139 -233 q-158 94 -277 240q-16 -16 -54 -46t-99.5 -60t-146.5 -52.5t-195 -22.5q-170 0 -285 55.5t-185.5 144.5t-100.5 199.5t-30 223.5zM424 592q0 -84 22.5 -153.5t65.5 -121t106.5 -79t145.5 -27.5q102 0 192 43q72 35 121 88t81 112.5t51.5 120t29.5 109.5q10 47 17.5 94 t7.5 94q0 59 -14.5 125t-52.5 121.5t-103.5 91t-165.5 35.5q-113 0 -193 -41t-136 -104.5t-91 -141t-53.5 -150.5t-24.5 -131.5t-6 -84.5z" />
<glyph unicode="R" horiz-adv-x="1323" d="M47 0l334 1446h432q121 0 194.5 -4t135.5 -27q104 -35 170.5 -125t66.5 -229q0 -84 -26.5 -162t-73.5 -139.5t-115.5 -103.5t-150.5 -54l190 -602h-282l-172 569h-301l-132 -569h-270zM498 782h247q66 0 112 3t83 16q51 18 83 49t49.5 65.5t22.5 67.5t5 53q0 66 -33 110 t-80 60q-31 10 -74 12.5t-110 2.5h-203z" />
<glyph unicode="S" horiz-adv-x="1280" d="M68 383l254 96q12 -72 45.5 -122t80 -80.5t102.5 -45t118 -14.5q70 0 121 17.5t83.5 47t49 66.5t16.5 74q0 43 -18.5 72.5t-46 51t-63.5 37t-69 27.5l-155 54q-37 12 -94.5 37.5t-111.5 68.5t-93 108.5t-39 161.5q0 82 37 160t107.5 137.5t171 96t229.5 36.5 q193 0 330 -79.5t196 -221.5l-234 -120q-31 88 -107.5 139t-195.5 51q-66 0 -112.5 -15.5t-76.5 -39t-43 -52t-13 -55.5q0 -39 15 -65.5t36.5 -44t46 -28.5t41.5 -17q10 -4 38.5 -14.5t60.5 -20.5t59.5 -20.5t39.5 -14.5q37 -14 97.5 -40t117 -72t98.5 -114.5t42 -168.5 t-45 -188.5t-123 -153t-185.5 -102.5t-232.5 -38q-109 0 -210 29t-175 82q-55 39 -90 82t-55.5 85t-30.5 75.5t-14 54.5z" />
<glyph unicode="T" horiz-adv-x="1110" d="M205 1210l55 238h1063l-55 -238h-375l-279 -1210h-274l278 1210h-413z" />
<glyph unicode="U" horiz-adv-x="1409" d="M141 375q0 53 11.5 113.5t27.5 138.5l191 819h270l-186 -813q-23 -88 -31 -136t-8 -81q0 -68 28.5 -109t70.5 -62.5t87 -28.5t78 -7q84 0 140.5 23.5t90.5 52.5q57 47 82 111.5t47 162.5l205 887h273l-207 -899q-18 -78 -34.5 -137.5t-37 -107.5t-46.5 -89t-65 -78 q-66 -61 -138 -95t-138 -49.5t-117 -18.5t-76 -3q-27 0 -69.5 2t-93 13.5t-103.5 32t-102 57.5q-63 47 -106.5 121.5t-43.5 179.5z" />
<glyph unicode="V" horiz-adv-x="1193" d="M244 1446h268l49 -1163l584 1163h293l-766 -1446h-330z" />
<glyph unicode="W" horiz-adv-x="1705" d="M258 0v1446h264l-37 -1127l482 1127h266l-37 -1127l477 1127h273l-656 -1446h-313l31 1014l-435 -1014h-315z" />
<glyph unicode="X" horiz-adv-x="1323" d="M-86 0l690 782l-276 664h293l167 -442l367 442h334l-598 -674l334 -772h-303l-215 553l-467 -553h-326z" />
<glyph unicode="Y" horiz-adv-x="1236" d="M242 1446h280l197 -639l455 639h313l-670 -871l-133 -575h-274l133 575z" />
<glyph unicode="Z" horiz-adv-x="1193" d="M-57 0l55 240l973 974h-735l53 232h1095l-51 -219l-989 -991h813l-53 -236h-1161z" />
<glyph unicode="[" horiz-adv-x="768" d="M82 -223l385 1669h532l-41 -180h-282l-301 -1309h270l-41 -180h-522z" />
<glyph unicode="\" horiz-adv-x="894" d="M250 1446h235l306 -1446h-236z" />
<glyph unicode="]" horiz-adv-x="768" d="M-139 -223l41 180h282l301 1309h-270l41 180h522l-385 -1669h-532z" />
<glyph unicode="^" horiz-adv-x="1366" d="M317 664l400 782h186l383 -782h-242l-237 501l-250 -501h-240z" />
<glyph unicode="_" horiz-adv-x="1024" d="M-20 -154h1064v-102h-1064v102z" />
<glyph unicode="`" horiz-adv-x="555" d="M86 1448h305l78 -281h-203z" />
<glyph unicode="a" d="M57 272q0 72 29 137.5t82 110.5q68 61 153 78.5t181 28.5l190 16q35 2 56.5 5t37 6t25.5 6.5t20 7.5q10 41 12.5 54t2.5 30q0 18 -5 37.5t-24.5 36t-56.5 26.5t-101 10q-66 0 -103.5 -14t-58 -37t-27.5 -48.5t-11 -45.5h-262q4 49 23.5 90t45 73.5t54 56.5t51.5 36 q111 63 301 63q111 0 197.5 -23.5t136.5 -68.5q29 -25 45 -51.5t23 -52t9 -47t2 -35.5q0 -18 -2 -37t-6 -44.5t-12 -61t-21 -91.5l-43 -196q-10 -45 -18 -78t-12 -59.5t-6 -49t-2 -45.5q0 -37 4 -57.5t8 -38.5h-262q-4 18 -4 31.5v17.5v24.5t4 30.5q-47 -45 -121 -84.5 t-193 -39.5q-63 0 -119.5 13t-99.5 42q-59 39 -91 101.5t-32 135.5zM313 307q0 -55 42 -94t116 -39q47 0 95 17.5t88 41t67 45t29 29.5l41 178l-240 -28q-41 -4 -64.5 -7.5t-38 -5.5t-22.5 -5t-16 -5q-53 -18 -75 -55t-22 -72z" />
<glyph unicode="b" horiz-adv-x="1193" d="M41 0l334 1448h246l-115 -498q12 10 32.5 26.5t52.5 32t76 27t101 11.5q88 0 158.5 -30t121 -85t78 -133t27.5 -174q0 -90 -27.5 -204t-92 -213t-168 -167t-257.5 -68q-59 0 -104 11.5t-81 30t-62.5 43t-49.5 48.5l-24 -106h-246zM389 406q0 -55 17.5 -96.5t46 -68 t66.5 -40t79 -13.5q63 0 107 21q51 23 85.5 63.5t56 84.5t33 84t15.5 63q4 25 7 49.5t3 48.5q0 78 -23.5 124t-56 70.5t-68.5 32t-59 7.5q-96 0 -155.5 -54.5t-94 -126t-47 -143.5t-12.5 -106z" />
<glyph unicode="c" horiz-adv-x="1024" d="M92 412q0 106 35 218.5t104.5 205t174 152t243.5 59.5q74 0 144.5 -19.5t127 -57.5t94.5 -96.5t50 -138.5l-234 -78q0 14 -4 45t-21.5 63t-53 55.5t-99.5 23.5q-80 0 -137 -40t-95 -101.5t-56.5 -134t-18.5 -136.5q0 -43 7 -87t32 -79q16 -23 55 -52.5t109 -29.5 q63 0 106 22.5t73 55.5t46.5 65.5t26.5 55.5l223 -92q-14 -29 -41 -79t-80 -101q-86 -84 -183 -111t-181 -27q-111 0 -195 34t-139 92.5t-84 138t-29 174.5z" />
<glyph unicode="d" horiz-adv-x="1193" d="M92 389q0 86 24.5 188.5t71.5 192.5q49 90 111.5 144.5t124 84t117 39t92.5 9.5q111 0 182.5 -44.5t110.5 -115.5l131 561h246l-334 -1448h-246l25 106q-18 -20 -43 -43.5t-59 -43t-79 -33t-106 -13.5q-96 0 -166 35t-115 92.5t-66.5 132t-21.5 156.5zM344 410 q0 -33 8 -72t29.5 -72t58.5 -54.5t95 -21.5q76 0 137 37q72 45 109 119t53 156q6 31 10 62.5t4 62.5q0 14 -3 50t-21.5 71.5t-57.5 63.5t-111 28q-88 0 -147 -48.5t-96 -117t-52.5 -142t-15.5 -122.5z" />
<glyph unicode="e" horiz-adv-x="1110" d="M94 422q0 90 29 199.5t93.5 204t171 158t263.5 63.5q125 0 208 -40t132 -103.5t69.5 -139.5t20.5 -146q0 -47 -5 -77.5t-11 -63.5h-711q-4 -10 -6 -28.5t-2 -42.5q0 -41 12.5 -82t40 -74t68.5 -53.5t100 -20.5q61 0 107.5 20.5t78 48t51 57.5t30.5 48l206 -127 q-8 -12 -25.5 -34.5t-45 -50t-65.5 -56.5t-89 -53q-66 -31 -132.5 -43.5t-129.5 -12.5q-102 0 -186 30t-144.5 86t-94.5 140t-34 193zM395 657h436q1 12 1 24q0 45 -13 77q-16 40 -42.5 65t-59.5 34t-64 9q-98 0 -160.5 -58t-97.5 -151z" />
<glyph unicode="f" horiz-adv-x="641" d="M78 -2l194 844h-163l41 176h161l11 41q18 74 30.5 123t24.5 82.5t26.5 55t34.5 42.5q55 57 126 73.5t149 16.5q59 0 98 -4t63 -8l-49 -207q-20 2 -37.5 3t-42.5 1q-39 0 -67.5 -6t-48 -24.5t-33.5 -52.5t-27 -91l-8 -45h215l-39 -176h-217l-194 -844h-248z" />
<glyph unicode="g" horiz-adv-x="1193" d="M-6 -18h254q-1 -9 -1 -17q0 -49 21 -79q25 -36 57.5 -53t64.5 -20t44 -3q59 0 110.5 20t86.5 51q43 41 67.5 103.5t49.5 144.5q-33 -31 -73 -50.5t-77 -30.5t-68.5 -14t-50.5 -3q-78 0 -145.5 29.5t-118.5 85t-80 133t-29 176.5q0 106 37 212.5t106.5 190.5t169 136.5 t222.5 52.5q25 0 61.5 -4.5t76.5 -18.5t79 -38.5t72 -63.5l22 98h252l-180 -780q-35 -145 -75 -269.5t-118 -206.5q-51 -53 -110 -82.5t-115.5 -43t-102.5 -15.5t-71 -2q-55 0 -111.5 7t-108.5 24.5t-95 47.5t-74 75q-20 31 -30.5 62.5t-14.5 60t-4 51v33.5zM360 461 q0 -31 8.5 -71t31 -73.5t60.5 -57t97 -23.5q111 0 187.5 76.5t105.5 199.5q12 51 12 109q0 104 -47 164.5t-145 60.5q-86 0 -145.5 -42t-95.5 -102.5t-52.5 -127t-16.5 -113.5z" />
<glyph unicode="h" d="M41 0l334 1446h248l-121 -526q72 66 150.5 91t142.5 25q39 0 90 -11t95 -42t74.5 -83t30.5 -134q0 -43 -9 -96.5t-29 -147.5l-121 -522h-250l112 487q20 82 27.5 126t7.5 79q0 63 -33.5 98t-99.5 35q-55 0 -98 -20.5t-72 -48.5q-51 -47 -73.5 -110.5t-45.5 -160.5 l-112 -485h-248z" />
<glyph unicode="i" horiz-adv-x="512" d="M41 0l233 1018h248l-235 -1018h-246zM317 1198l58 248h246l-58 -248h-246z" />
<glyph unicode="j" horiz-adv-x="512" d="M-199 -346l52 217q16 -4 35.5 -7t41.5 -3q55 0 77 43t46 143l223 971h246l-235 -1020q-23 -94 -44.5 -161.5t-64.5 -115.5q-41 -47 -100.5 -67.5t-122.5 -20.5q-35 0 -77 6.5t-77 14.5zM317 1198l60 248h244l-58 -248h-246z" />
<glyph unicode="k" horiz-adv-x="1110" d="M41 0l334 1446h243l-186 -807l455 379h313l-442 -356l293 -662h-275l-211 508l-198 -160l-82 -348h-244z" />
<glyph unicode="l" horiz-adv-x="512" d="M39 0l334 1446h248l-334 -1446h-248z" />
<glyph unicode="m" horiz-adv-x="1748" d="M41 0l235 1018h244l-24 -109q14 16 38.5 38t59.5 42.5t80 33.5t104 13q61 0 115 -18q76 -25 106.5 -67t42.5 -72q70 74 160 115.5t191 41.5q57 0 110 -16t94 -50t66 -83t25 -115q0 -47 -12.5 -109.5t-26.5 -125.5l-123 -537h-248l119 512q10 47 21.5 98.5t11.5 85.5 q0 43 -15.5 67.5t-37 38t-43 17.5t-36.5 4q-45 0 -91 -21.5t-83 -58.5q-49 -53 -73.5 -126.5t-49.5 -178.5l-100 -438h-248l115 500q4 18 10 43.5t11.5 53.5t9.5 51.5t4 37.5q0 70 -34 103.5t-91 33.5q-39 0 -74 -13t-63 -36q-66 -49 -93.5 -117.5t-50.5 -167.5l-112 -489 h-244z" />
<glyph unicode="n" d="M41 -2l233 1020h234l-27 -113q14 14 41 36t67 43.5t92 36.5t118 15q72 0 128 -23.5t91 -58.5q25 -27 38 -57.5t20 -58t8 -51t1 -35.5q0 -55 -9 -104.5t-21 -104.5l-125 -545h-250l117 506q14 63 21 103t7 75q0 8 -2 31.5t-14 48t-39 43t-76 18.5q-66 0 -121 -34.5 t-86 -75.5q-37 -51 -58 -122t-42 -161l-100 -432h-246z" />
<glyph unicode="o" d="M88 412q0 66 15.5 138.5t46 141t74.5 131t102 107.5q74 57 168 87t184 30q84 0 163 -26t139 -78t97 -132t37 -190q0 -41 -5 -82t-15 -82q-29 -129 -86.5 -221.5t-134 -150.5t-167 -85t-182.5 -27q-129 0 -214 45t-134 113t-68.5 143.5t-19.5 137.5zM336 422 q0 -104 53 -171t156 -67q104 0 190 79t121 235q12 57 12 116q0 61 -16 104.5t-45 71t-65.5 40t-77.5 12.5q-102 0 -167 -53.5t-101 -124t-48 -140t-12 -102.5z" />
<glyph unicode="p" horiz-adv-x="1193" d="M-41 -367l320 1387h241l-26 -111q51 70 125.5 104t160.5 34q70 0 137.5 -24t120 -76t85 -133t32.5 -193q0 -111 -34 -225.5t-101.5 -209t-168.5 -154t-235 -59.5q-80 0 -133 17.5t-88 42t-53 50.5t-27 40l-112 -490h-244zM391 424q0 -74 22.5 -120t54.5 -71.5t68.5 -35 t67.5 -9.5q61 0 109.5 26t83 69t59.5 98.5t37 116.5q4 29 8 57.5t4 56.5q0 115 -56 173.5t-153 58.5q-74 0 -124 -30t-83.5 -74t-53 -97t-30 -99t-12.5 -80t-2 -40z" />
<glyph unicode="q" d="M92 377q0 86 24.5 189.5t73.5 193.5q47 86 106.5 141t122 88t123 45.5t107.5 12.5q96 0 176 -41q49 -27 71 -53.5t36 -51.5l26 119h244l-319 -1387h-244l102 445q-123 -104 -280 -105q-76 0 -143.5 25t-117.5 75t-79 125.5t-29 178.5zM342 401q0 -14 3 -48t21.5 -69.5 t56.5 -63t107 -27.5q66 0 117 25.5t88 65.5t61.5 88t39 95t20.5 87t6 62q0 29 -8 75t-37 81q-18 23 -39.5 35t-43 18t-40 7.5t-26.5 1.5q-78 0 -138.5 -39t-101.5 -101.5t-63.5 -139.5t-22.5 -153z" />
<glyph unicode="r" horiz-adv-x="724" d="M41 0l233 1020h248l-53 -176q55 70 107.5 108.5t99.5 57t90 20.5q22 1 41 1t37 -1l-58 -252q-33 2 -40 2h-19q-16 0 -40.5 -2t-54.5 -10t-60.5 -23.5t-61.5 -42.5q-53 -49 -76.5 -110.5t-44.5 -145.5l-102 -446h-246z" />
<glyph unicode="s" horiz-adv-x="1024" d="M18 238l211 129q18 -68 57.5 -106t82.5 -56.5t83 -23.5t62 -5q98 0 142 39t44 80q0 27 -12 45t-28.5 30.5t-35 20.5t-32.5 12l-160 54q-31 10 -75 28.5t-85 49t-69.5 76.5t-28.5 114q0 59 26.5 117.5t79 103.5t131 73t181.5 28q51 0 111.5 -9.5t120 -35t112.5 -68.5 t92 -111l-192 -116q-31 80 -97.5 114.5t-140.5 34.5q-72 0 -122 -26.5t-50 -79.5q0 -49 54.5 -75t158.5 -57q41 -12 94 -32.5t101.5 -55t81 -87t32.5 -130.5q0 -70 -31.5 -136t-97.5 -116q-41 -31 -85 -48t-86 -26.5t-79 -11.5t-63 -2q-72 0 -143.5 12.5t-136 42t-119 81 t-89.5 129.5z" />
<glyph unicode="t" horiz-adv-x="641" d="M131 842l41 176h152l82 356h243l-82 -356h189l-41 -176h-189l-102 -439q-10 -41 -15.5 -70.5t-5.5 -49.5q0 -47 30 -65.5t87 -18.5q18 0 32.5 1t35.5 3l-47 -203q-39 -4 -69 -8t-71 -4q-23 0 -65.5 4t-84.5 23.5t-73 61.5t-31 118q0 43 9.5 94t25.5 123l101 430h-152z " />
<glyph unicode="u" d="M115 244q0 47 10 103t29 145l120 526h248l-114 -498q-18 -84 -26.5 -127t-8.5 -76q0 -35 13 -59.5t33.5 -39.5t45 -21.5t49.5 -6.5q45 0 88 18.5t78 53.5q59 59 87 149.5t50 184.5l96 422h248l-235 -1018h-230l27 109q-18 -18 -46 -41t-65 -41.5t-84 -31.5t-104 -13 q-53 0 -108.5 13t-100.5 44t-72.5 81t-27.5 124z" />
<glyph unicode="v" horiz-adv-x="937" d="M129 1018h244l20 -797l410 797h254l-559 -1018h-289z" />
<glyph unicode="w" horiz-adv-x="1449" d="M154 1018h239l-10 -748l344 748h242v-748l348 748h260l-526 -1018h-267v692l-331 -692h-263z" />
<glyph unicode="x" horiz-adv-x="1067" d="M-55 0l479 545l-227 473h264l127 -320l241 320h301l-430 -494l256 -524h-272l-147 367l-287 -367h-305z" />
<glyph unicode="y" horiz-adv-x="937" d="M-94 -348l49 217q23 -4 49.5 -7t54.5 -3q29 0 56.5 8t56.5 37q10 12 24.5 35.5t14.5 27.5l-94 1053h250l26 -795l404 795h260l-580 -1053q-43 -80 -82 -142.5t-82 -105.5t-96 -64.5t-127 -21.5t-184 19z" />
<glyph unicode="z" horiz-adv-x="980" d="M-18 0l36 164l656 651h-504l45 203h844l-41 -178l-645 -633h557l-49 -207h-899z" />
<glyph unicode="{" horiz-adv-x="724" d="M143 545v129q37 10 68 27.5t57 70.5q18 41 22.5 91t4.5 141v61q0 74 3 126t12 92t24.5 69.5t42.5 56.5t56.5 43t73.5 25.5t108.5 13.5t160.5 4v-129q-43 -10 -92 -29.5t-84 -74.5q-25 -37 -31 -89.5t-4 -134.5v-16q0 -8 -1 -51t-3 -76q-4 -78 -19.5 -128t-41 -81t-59 -48 t-74.5 -30q45 -16 91 -39.5t77 -89.5q20 -45 25 -101t5 -161v-20q0 -82 6.5 -138.5t28 -95.5t63.5 -64.5t113 -45.5v-129q-84 2 -145.5 5t-106.5 11t-78.5 22.5t-60.5 38.5q-33 29 -50.5 64t-25.5 75t-10 86t-2 99v125v51q-4 70 -18.5 113t-36 68.5t-48 39t-51.5 23.5z" />
<glyph unicode="|" horiz-adv-x="468" d="M205 -512v2048h211v-2048h-211z" />
<glyph unicode="}" horiz-adv-x="724" d="M143 -147q43 10 92.5 29.5t83.5 74.5q25 37 31 89t4 134v17q0 8 1 51t3 76q2 78 18.5 128t42 80.5t59.5 48t75 29.5q-45 16 -91 40t-77 89q-20 45 -25.5 101.5t-5.5 160.5v21q0 82 -6 138.5t-27.5 95t-63.5 64.5t-114 46v129q84 -2 145.5 -5t106.5 -11.5t78 -22.5t62 -39 q33 -29 50 -63.5t25 -74.5t10.5 -86t2.5 -99v-125v-51q2 -70 17 -113t36.5 -69.5t48.5 -40t51 -21.5v-129q-37 -10 -67.5 -27.5t-57.5 -71.5q-18 -41 -22 -91t-4 -140v-61q0 -74 -3.5 -126.5t-12.5 -92t-24.5 -69.5t-41.5 -56q-27 -27 -56.5 -43.5t-73.5 -25.5t-108.5 -13 t-161.5 -4v129z" />
<glyph unicode="~" horiz-adv-x="1366" d="M246 604q14 20 39.5 52t61.5 60.5t85 49t113 20.5q55 0 103 -17t112 -48l71 -33q57 -23 88 -33t62 -10q61 0 110.5 39t90.5 88l94 -182q-72 -82 -148.5 -124t-152.5 -42q-53 0 -99.5 17.5t-109.5 45.5l-61 31q-41 20 -79 33.5t-79 13.5q-31 0 -53.5 -7t-45 -23.5t-47 -43 t-57.5 -65.5z" />
<glyph unicode="&#xa1;" horiz-adv-x="598" d="M29 0l141 608l174 434h127l-37 -421l-143 -621h-262zM299 1169l66 277h270l-64 -277h-272z" />
<glyph unicode="&#xa2;" horiz-adv-x="1067" d="M92 416q0 127 40 242.5t112.5 203.5t175 140.5t225.5 52.5l41 174h127l-41 -182q51 -10 102.5 -35t93.5 -63t71.5 -89t35.5 -117l-231 -75q-2 20 -7.5 47.5t-17.5 53.5t-34.5 46.5t-59.5 28.5l-152 -654q55 2 95.5 25t68 53.5t45 62t27.5 56.5l225 -92 q-31 -66 -62.5 -112t-80.5 -89q-51 -43 -105.5 -67.5t-103.5 -34.5t-90 -12.5t-68 -2.5l-49 -208h-127l51 225q-25 6 -76 25.5t-102 65.5t-90 125t-39 206zM344 430q0 -29 4 -60.5t16.5 -61t33 -55.5t53.5 -40l147 631q-57 -10 -103 -49t-80 -95.5t-52.5 -126t-18.5 -143.5z " />
<glyph unicode="&#xa3;" horiz-adv-x="1280" d="M49 209q0 41 14.5 87t44 84t77.5 62.5t116 24.5q31 0 90.5 -13.5t112.5 -56.5q4 10 12 33t8 59q0 35 -8 62t-22 61h-279l41 181h184q-43 70 -54 131t-11 96q0 88 34.5 160.5t98 125t153 81t199.5 28.5q207 0 326 -104.5t119 -304.5q0 -37 -7 -93h-231q2 29 3 42.5t1 33.5 q0 39 -8 80t-30.5 75t-61.5 54.5t-103 20.5q-57 0 -100 -18.5t-72.5 -49.5t-45 -71t-15.5 -81q0 -61 17.5 -104t43.5 -102h271l-43 -181h-195q4 -16 12.5 -46.5t8.5 -78.5q0 -33 -10.5 -89t-45.5 -124q4 -2 14.5 -9t21.5 -14t21.5 -14.5t14.5 -9.5q16 -10 38.5 -18t49.5 -8 q35 0 58.5 15t41 48t32.5 80t34 113h246q-25 -94 -55.5 -180.5t-74.5 -153t-106.5 -105t-150.5 -38.5q-53 0 -98.5 13t-82 32.5t-65.5 41t-49 39.5q-18 -16 -45 -38.5t-62 -43t-80 -35t-100 -14.5q-59 0 -105.5 20.5t-78 53.5t-48 75t-16.5 85zM236 219q0 -27 20 -42t47 -15 q35 0 66.5 22.5t54.5 51.5q-31 20 -59.5 34.5t-61.5 14.5q-37 0 -52 -23.5t-15 -42.5z" />
<glyph unicode="&#xa4;" horiz-adv-x="1366" d="M115 221l161 160q-12 18 -29.5 46t-31.5 65.5t-24.5 88t-10.5 113.5q0 125 35 200t61 114l-157 157l155 158l158 -158q20 12 49 29.5t67 32t88 25t112 10.5q125 0 199.5 -35t113.5 -62l160 158l159 -158l-161 -157q12 -18 28.5 -46t31.5 -67t25.5 -88t10.5 -113 q0 -63 -10.5 -113.5t-25.5 -89t-32.5 -66.5t-29.5 -46l161 -162l-159 -158l-160 162q-18 -12 -47 -28.5t-67 -31t-87 -24.5t-110 -10q-63 0 -113.5 10t-88.5 25.5t-66.5 32t-47.5 28.5l-160 -160zM387 694q0 -84 29.5 -150.5t81 -113.5t117 -72.5t137.5 -25.5t136 26.5 t112.5 74.5t77 114.5t28.5 146.5q0 84 -29.5 150.5t-80 114t-116 73t-132.5 25.5q-68 0 -133.5 -24.5t-115.5 -72t-81 -114t-31 -152.5z" />
<glyph unicode="&#xa5;" horiz-adv-x="1193" d="M117 391l39 170h385l-49 137h-304l39 170h207l-180 523h268l189 -615l440 615h299l-401 -523h194l-39 -170h-286l-105 -137h361l-39 -170h-367l-90 -391h-262l90 391h-389z" />
<glyph unicode="&#xa6;" horiz-adv-x="468" d="M205 358h211v-716h-211v716zM205 666v716h211v-716h-211z" />
<glyph unicode="&#xa7;" horiz-adv-x="1236" d="M70 -43l155 190q20 -31 53 -59.5t77 -52t99.5 -37.5t123.5 -14q23 0 59.5 4t71 16t60.5 35.5t26 64.5q0 47 -49.5 72t-135.5 57l-153 56q-57 20 -114.5 44.5t-102.5 63.5q-53 45 -84 107.5t-31 132.5q0 31 9 77t37 94t80 88t138 58l-18.5 18.5t-24.5 32t-21.5 48 t-9.5 67.5q0 49 23.5 110.5t78 116t144.5 92.5t225 38q117 0 226.5 -36t201.5 -108l-145 -170q-29 31 -65.5 52.5t-76.5 34t-81 18.5t-76 6q-88 0 -145.5 -32t-57.5 -83q0 -43 38 -63.5t116 -46.5l160 -56q66 -25 127 -50t108 -62t76 -91.5t29 -134.5q0 -59 -21.5 -113.5 t-57.5 -97.5t-84 -72.5t-102 -41.5q53 -45 74 -96.5t21 -98.5q0 -72 -42 -151.5t-132 -133.5q-72 -43 -162 -61t-162 -18q-57 0 -120.5 10t-127 32.5t-124 57.5t-111.5 86zM360 688q0 -35 16.5 -59.5t43 -43t61.5 -32.5t74 -27l154 -55q29 -10 45 -16t27.5 -10.5t17.5 -7.5 t14 -9q33 2 63.5 14.5t54 32t38 47t14.5 60.5q0 39 -22 73q-12 14 -23.5 25.5t-29 21t-44 19.5t-67.5 27l-170 57q-55 20 -72.5 27.5t-32.5 17.5q-14 -4 -41.5 -11.5t-54.5 -25.5t-46.5 -48t-19.5 -77z" />
<glyph unicode="&#xa8;" horiz-adv-x="555" d="M-119 1165l60 252h258l-58 -252h-260zM358 1165l58 252h258l-58 -252h-258z" />
<glyph unicode="&#xa9;" horiz-adv-x="1705" d="M180 723q0 158 58.5 291t159 230t232.5 152.5t279 55.5q158 0 292 -58.5t231.5 -158.5t151.5 -232t54 -282q0 -152 -56 -284t-154.5 -230t-231.5 -155.5t-289 -57.5q-141 0 -273 53t-232.5 149.5t-161 230.5t-60.5 296zM246 723q0 -139 52 -261t142 -211t211 -140.5 t258 -51.5q141 0 262 52.5t210 141.5t140.5 210t51.5 258t-49 258t-138.5 211t-210 143t-264.5 53q-139 0 -261 -52t-212 -142t-141 -211t-51 -258zM428 723q0 104 36 196.5t100.5 160t156.5 106.5t205 39q84 0 148.5 -19.5t111.5 -48.5t79.5 -59.5t53.5 -50.5l-145 -140 q-16 16 -39 37t-52.5 39t-69.5 30.5t-89 12.5q-68 0 -122 -23.5t-91 -64.5t-57.5 -95.5t-20.5 -115.5q0 -68 22.5 -123t61.5 -94t93 -60.5t118 -21.5q51 0 91 12.5t69.5 29.5t51 36.5t34.5 34.5l145 -133q-82 -92 -179.5 -135.5t-215.5 -43.5q-115 0 -206 38t-155.5 104.5 t-99.5 156.5t-35 195z" />
<glyph unicode="&#xaa;" horiz-adv-x="768" d="M207 963q0 47 19.5 91t52.5 72q45 41 101 52.5t116 17.5l122 12q25 2 46.5 4t37.5 11q8 31 9 47q0 8 -2 19t-13.5 21.5t-34 17.5t-63.5 7t-63.5 -9t-35 -22.5t-17.5 -31t-7 -31.5h-180q4 43 20.5 75t35 53.5t35.5 32.5t24 15q43 25 95 33t101 8q51 0 100.5 -9t87 -29.5 t60.5 -56.5t23 -87q0 -27 -5.5 -55.5t-21.5 -96.5l-29 -127q-14 -59 -19 -88.5t-5 -58.5q0 -25 3 -40t7 -28h-182q-2 14 -2 25.5v32.5q-33 -27 -74 -49.5t-119 -22.5q-49 0 -84 10t-57 27q-41 27 -61.5 67.5t-20.5 90.5zM383 983q0 -33 25.5 -55.5t66.5 -22.5 q31 0 60.5 11.5t54 25.5t41 27.5t18.5 17.5l23 105l-144 -17q-51 -6 -64 -8t-24 -6q-35 -10 -46 -33.5t-11 -44.5z" />
<glyph unicode="&#xab;" horiz-adv-x="894" d="M86 489l53 238l396 256l-66 -287l-197 -102l146 -117l-58 -248zM506 489l55 238l395 256l-65 -287l-197 -102l146 -117l-58 -248z" />
<glyph unicode="&#xac;" horiz-adv-x="1366" d="M55 496v211h1366v-707h-211v496h-1155z" />
<glyph unicode="&#xad;" horiz-adv-x="768" d="M102 487l56 236h594l-54 -236h-596z" />
<glyph unicode="&#xae;" horiz-adv-x="1705" d="M180 723q0 158 58.5 291t158 230t231.5 152.5t279 55.5q160 0 294 -58.5t231.5 -158.5t151.5 -233t54 -283q0 -152 -57 -284t-155.5 -230.5t-231.5 -154.5t-287 -56q-141 0 -273 53t-232.5 149.5t-161 230.5t-60.5 296zM246 723q0 -139 52 -261t142 -211t211 -140.5 t258 -51.5q141 0 262 51.5t210 141.5t140.5 210t51.5 259q0 135 -49 257t-138.5 212t-211 143t-263.5 53q-141 0 -262 -52t-211 -142t-141 -211t-51 -258zM584 264v930h317q72 -2 122 -4t95 -19q86 -29 122 -93t36 -128q0 -61 -22.5 -101t-53.5 -64.5t-59.5 -37t-40.5 -16.5 q20 -10 38.5 -21.5t33 -31t25.5 -51t20 -80.5q14 -86 27 -152.5t48 -130.5h-223q-23 45 -32 96.5t-17 106.5q-10 63 -18.5 102t-28 60.5t-54 29t-94.5 9.5h-47v-404h-194zM778 823h117q27 0 59.5 1t60 12.5t47 35t19.5 66.5q0 20 -11 49t-46 45q-12 4 -21.5 7t-25.5 4t-42 1 h-69h-88v-221z" />
<glyph unicode="&#xaf;" horiz-adv-x="555" d="M-61 1167l41 170h636l-38 -170h-639z" />
<glyph unicode="&#xb0;" horiz-adv-x="724" d="M127 1194q0 74 27.5 137.5t76 111.5t112 75.5t136.5 27.5q74 0 137.5 -27.5t111.5 -75.5t75.5 -111.5t27.5 -137.5t-27.5 -137.5t-75.5 -111.5t-111.5 -75.5t-137.5 -27.5t-137 27.5t-111.5 75.5t-76 111.5t-27.5 137.5zM332 1194q0 -61 43 -104t104 -43t104.5 43 t43.5 104t-43 104t-105 43q-61 0 -104 -43t-43 -104z" />
<glyph unicode="&#xb1;" horiz-adv-x="1366" d="M162 0v211h1194v-211h-1194zM162 766v211h493v461h211v-461h490v-211h-490v-463h-211v463h-493z" />
<glyph unicode="&#xb2;" horiz-adv-x="768" d="M102 487l33 142q78 55 155 113.5t148 121.5q39 33 76 68t65.5 69.5t46 70.5t17.5 71q0 47 -29.5 76.5t-76.5 29.5q-43 0 -81 -27.5t-59 -70.5q-10 -23 -15 -43.5t-9 -52.5l-172 26q4 61 28.5 120t68.5 105t106.5 74.5t146.5 28.5q70 0 122 -21.5t87 -56.5t52 -81t17 -95 q0 -55 -20.5 -107.5t-69.5 -110.5t-133 -129t-211 -165h359l-37 -156h-615z" />
<glyph unicode="&#xb3;" horiz-adv-x="768" d="M104 770l181 18q-2 -53 14 -85.5t41 -50t50.5 -22.5t39.5 -5q70 0 115 44t45 103q0 55 -34 89t-120 34q-10 0 -18 -1t-19 -1l33 149q4 -2 21.5 -3t38.5 -1q84 0 122.5 36t38.5 83q0 41 -30.5 72t-85.5 31q-45 0 -86 -27q-35 -23 -45.5 -48.5t-18.5 -54.5l-170 39 q10 29 19.5 52.5t25.5 52.5q39 57 110.5 97t176.5 40q68 0 121 -19.5t88 -52t53 -74.5t18 -85t-15 -78t-38 -64q-33 -39 -66.5 -54t-68.5 -28q16 -6 32.5 -13t28.5 -17q29 -18 47.5 -58.5t18.5 -93.5t-20.5 -107.5t-63.5 -97.5t-107.5 -70.5t-152.5 -27.5q-90 0 -150.5 27.5 t-96.5 70.5t-52 96.5t-21 104.5z" />
<glyph unicode="&#xb4;" horiz-adv-x="555" d="M35 1167l147 281h338l-266 -281h-219z" />
<glyph unicode="&#xb6;" horiz-adv-x="1366" d="M270 1020q0 113 38 190.5t93 128.5q43 39 88.5 59.5t88.5 31t81.5 13.5t69.5 3h492v-135h-72v-1653h-145v1653h-269v-1653h-145v969q-31 6 -78 20.5t-98 52.5q-72 57 -108 142.5t-36 177.5z" />
<glyph unicode="&#xb7;" horiz-adv-x="512" d="M137 467l64 276h270l-63 -276h-271z" />
<glyph unicode="&#xb8;" horiz-adv-x="555" d="M45 -430l18 82q35 -10 59.5 -16.5t53.5 -6.5q61 0 88 22.5t27 41.5q0 16 -9.5 25.5t-22.5 14.5t-29.5 6t-28.5 1q-23 0 -37 -1t-37 -3l12 57l289 291l80 2l-176 -238q86 6 130 -34.5t44 -92.5q0 -31 -19.5 -62.5t-55.5 -58t-87 -43t-117 -16.5q-49 0 -92 7.5t-90 21.5z " />
<glyph unicode="&#xb9;" horiz-adv-x="768" d="M274 1110l27 119q74 0 123 20.5t78.5 47t44 53t20.5 41.5h156l-209 -904h-174l117 508q8 35 11 52.5t3 27.5q0 27 -16.5 31t-63.5 4h-117z" />
<glyph unicode="&#xba;" horiz-adv-x="768" d="M221 1051q0 61 21.5 133.5t67.5 135t119 103.5t175 41q55 0 106.5 -16t91.5 -50t64.5 -87.5t24.5 -124.5q0 -27 -4 -53.5t-8 -53.5q-18 -84 -56.5 -144.5t-88.5 -98t-108.5 -55t-117.5 -17.5q-86 0 -141.5 29.5t-88 73.5t-45 94.5t-12.5 89.5zM391 1057q0 -66 34 -106 t95 -40q63 0 116.5 49.5t76.5 147.5q8 33 8 74q0 72 -35 105.5t-92 33.5q-63 0 -103 -34t-61.5 -79t-30 -88t-8.5 -63z" />
<glyph unicode="&#xbb;" horiz-adv-x="894" d="M25 229l65 287l197 102l-146 117l58 248l274 -262l-53 -238zM446 229l66 287l197 102l-146 117l58 248l274 -262l-53 -238z" />
<glyph unicode="&#xbc;" horiz-adv-x="1792" d="M274 1110l27 119q74 0 123 20.5t78.5 47t44 53t20.5 41.5h156l-209 -904h-174l117 508q8 35 11 52.5t3 27.5q0 27 -16.5 31t-63.5 4h-117zM436 47l953 1368l102 -69l-952 -1371zM1044 211l37 162l463 530h205l-125 -545h117l-35 -147h-117l-49 -211h-172l49 211h-373z M1245 358h207l86 340z" />
<glyph unicode="&#xbd;" horiz-adv-x="1792" d="M274 1110l27 119q74 0 123 20.5t78.5 47t44 53t20.5 41.5h156l-209 -904h-174l117 508q8 35 11 52.5t3 27.5q0 27 -16.5 31t-63.5 4h-117zM369 47l952 1368l100 -69l-950 -1371zM1014 0l33 141q78 55 154.5 113.5t148.5 122.5q39 33 75.5 67.5t65.5 69.5t46 71t17 70 q0 47 -29.5 77t-76.5 30q-43 0 -81 -27.5t-58 -70.5q-10 -23 -15.5 -43.5t-9.5 -53.5l-172 27q4 61 28.5 119.5t68.5 104.5t106.5 75t146.5 29q70 0 122 -21.5t87 -56.5t52.5 -81t17.5 -95q0 -55 -20.5 -107.5t-69.5 -111t-133 -129t-211 -164.5h358l-37 -156h-614z" />
<glyph unicode="&#xbe;" horiz-adv-x="1792" d="M104 770l181 18q-2 -53 14 -85.5t41 -50t50.5 -22.5t39.5 -5q70 0 115 44t45 103q0 55 -34 89t-120 34q-10 0 -18 -1t-19 -1l33 149q4 -2 21.5 -3t38.5 -1q84 0 122.5 36t38.5 83q0 41 -30.5 72t-85.5 31q-45 0 -86 -27q-35 -23 -45.5 -48.5t-18.5 -54.5l-170 39 q10 29 19.5 52.5t25.5 52.5q39 57 110.5 97t176.5 40q68 0 121 -19.5t88 -52t53 -74.5t18 -85t-15 -78t-38 -64q-33 -39 -66.5 -54t-68.5 -28q16 -6 32.5 -13t28.5 -17q29 -18 47.5 -58.5t18.5 -93.5t-20.5 -107.5t-63.5 -97.5t-107.5 -70.5t-152.5 -27.5q-90 0 -150.5 27.5 t-96.5 70.5t-52 96.5t-21 104.5zM498 47l952 1370l100 -69l-950 -1373zM1044 211l37 164l463 528h205l-125 -545h117l-35 -147h-117l-49 -211h-172l49 211h-373zM1245 358h207l86 340z" />
<glyph unicode="&#xbf;" horiz-adv-x="1110" d="M-2 354q0 78 37 152q14 29 31.5 51.5t39 43t48 41t61.5 46.5l96 72q45 35 75 58.5t48.5 41t27.5 30.5t17 28q12 23 22.5 59.5t18.5 64.5h228l-25 -106q-12 -53 -22.5 -89t-33 -70t-60.5 -69.5t-105 -86.5l-74 -58q-39 -29 -66.5 -51.5t-46 -44t-26.5 -46t-8 -54.5 q0 -16 8 -44t30.5 -54.5t62.5 -46t105 -19.5q78 0 141.5 34.5t102.5 104.5q23 37 29 73t10 70l248 -55q-20 -98 -54 -161.5t-57 -94.5q-55 -72 -120.5 -110.5t-127 -57t-111.5 -21.5t-73 -3q-141 0 -233 39.5t-146.5 97t-76 122t-21.5 113.5zM524 1169l66 277h270l-63 -277 h-273z" />
<glyph unicode="&#xc0;" horiz-adv-x="1323" d="M-53 0l827 1448h303l156 -1448h-272l-29 301h-529l-159 -301h-297zM528 530h385l-47 644zM694 1784h305l70 -244h-207z" />
<glyph unicode="&#xc1;" horiz-adv-x="1323" d="M-53 0l827 1448h303l156 -1448h-272l-29 301h-529l-159 -301h-297zM528 530h385l-47 644zM795 1534l135 250h332l-261 -250h-206z" />
<glyph unicode="&#xc2;" horiz-adv-x="1323" d="M-53 0l827 1448h303l156 -1448h-272l-29 301h-529l-159 -301h-297zM528 530h385l-47 644zM586 1540l260 250h270l148 -250h-232l-63 133l-121 -133h-262z" />
<glyph unicode="&#xc3;" horiz-adv-x="1323" d="M-53 0l827 1448h303l156 -1448h-272l-29 301h-529l-159 -301h-297zM528 530h385l-47 644zM573 1532q4 23 20.5 69t51.5 93q35 45 85 70.5t106 25.5q18 0 33.5 -2t34 -7t46 -14.5t72.5 -25.5q49 -18 84 -19q43 0 63.5 21.5t32.5 48.5h152q-33 -121 -104.5 -190.5 t-170.5 -69.5q-35 0 -61.5 7t-54.5 17q-74 29 -101.5 37.5t-48.5 8.5q-45 0 -62.5 -26t-25.5 -44h-152z" />
<glyph unicode="&#xc4;" horiz-adv-x="1323" d="M-53 0l827 1448h303l156 -1448h-272l-29 301h-529l-159 -301h-297zM528 530h385l-47 644zM580 1536l57 254h258l-57 -254h-258zM1055 1536l57 254h260l-59 -254h-258z" />
<glyph unicode="&#xc5;" horiz-adv-x="1323" d="M-53 0l827 1448h303l156 -1448h-272l-29 301h-529l-159 -301h-297zM528 530h385l-47 644zM780 1706q0 37 13.5 69.5t38 58.5t58.5 41t77 15q84 0 136 -54t52 -132q0 -10 -1 -19.5t-3 -19.5q-16 -74 -69.5 -113t-112.5 -39q-37 0 -71 14.5t-59.5 40t-42 60.5t-16.5 78z M877 1702q0 -43 29.5 -66.5t60.5 -23.5q29 0 54.5 19.5t33.5 54.5q2 8 2 20q0 35 -24.5 61.5t-65.5 26.5t-65.5 -26.5t-24.5 -65.5z" />
<glyph unicode="&#xc6;" horiz-adv-x="2004" d="M-43 0l1087 1446h1088l-53 -238h-647l-80 -344h618l-55 -239h-619l-90 -387h756l-55 -238h-1014l76 336h-437l-241 -336h-334zM705 571h319l160 695z" />
<glyph unicode="&#xc7;" horiz-adv-x="1409" d="M156 575q0 94 17 198t55 204t97.5 191.5t143.5 160t195.5 108.5t250.5 40q80 0 141.5 -11.5t109.5 -30t82 -40t57 -39.5q55 -47 87.5 -99.5t49 -102.5t21.5 -94t7 -71l-264 -47q0 18 -1 36.5t-5 45.5q-10 70 -41 113t-71.5 67.5t-85 32.5t-82.5 8q-96 0 -169 -33.5 t-127.5 -89t-90 -125t-57 -140.5t-31 -136.5t-9.5 -110.5q0 -102 26.5 -177t72 -124t105.5 -72.5t128 -23.5q98 0 168 36t117 85t73.5 99t38.5 81l238 -98q-31 -82 -77 -155t-112 -130q-70 -61 -177 -109.5t-246 -54.5l-91 -121q86 6 130 -34.5t44 -92.5q0 -31 -18 -62.5 t-54 -58t-88 -43t-118 -16.5q-49 0 -92 7.5t-90 21.5l18 82q33 -10 58.5 -16.5t54.5 -6.5q61 0 87.5 22.5t26.5 41.5q0 16 -9 25.5t-22.5 14.5t-29.5 6t-29 1q-23 0 -37 -1t-38 -3l14 57l178 180q-119 12 -216 54.5t-167 116t-108.5 181t-38.5 252.5z" />
<glyph unicode="&#xc8;" horiz-adv-x="1280" d="M47 0l334 1446h983l-53 -236h-717l-80 -342h682l-53 -231h-682l-92 -404h823l-53 -233h-1092zM672 1784h305l70 -244h-207z" />
<glyph unicode="&#xc9;" horiz-adv-x="1280" d="M47 0l334 1446h983l-53 -236h-717l-80 -342h682l-53 -231h-682l-92 -404h823l-53 -233h-1092zM772 1534l135 250h332l-260 -250h-207z" />
<glyph unicode="&#xca;" horiz-adv-x="1280" d="M47 0l334 1446h983l-53 -236h-717l-80 -342h682l-53 -231h-682l-92 -404h823l-53 -233h-1092zM563 1540l260 250h271l147 -250h-231l-64 133l-121 -133h-262z" />
<glyph unicode="&#xcb;" horiz-adv-x="1280" d="M47 0l334 1446h983l-53 -236h-717l-80 -342h682l-53 -231h-682l-92 -404h823l-53 -233h-1092zM535 1536l57 254h258l-57 -254h-258zM1010 1536l57 254h260l-59 -254h-258z" />
<glyph unicode="&#xcc;" horiz-adv-x="555" d="M49 0l334 1446h272l-333 -1446h-273zM309 1784h305l70 -244h-207z" />
<glyph unicode="&#xcd;" horiz-adv-x="555" d="M49 0l334 1446h272l-333 -1446h-273zM410 1534l135 250h332l-261 -250h-206z" />
<glyph unicode="&#xce;" horiz-adv-x="555" d="M49 0l334 1446h272l-333 -1446h-273zM201 1540l260 250h270l148 -250h-232l-63 133l-121 -133h-262z" />
<glyph unicode="&#xcf;" horiz-adv-x="555" d="M49 0l334 1446h272l-333 -1446h-273zM172 1536l57 254h258l-57 -254h-258zM647 1536l58 254h260l-60 -254h-258z" />
<glyph unicode="&#xd0;" horiz-adv-x="1492" d="M0 692l45 191h205l133 563h274q94 0 169 -1t136.5 -6t112.5 -14.5t99 -27.5q111 -43 173 -117t94 -155t39 -158.5t7 -126.5q0 -123 -25.5 -224.5t-64.5 -181.5t-85 -140.5t-87 -98.5q-76 -74 -159 -113t-169 -57.5t-174 -21.5t-174 -3h-500l158 692h-207zM375 238h57 q94 0 159.5 1t112 4t79 8t63.5 15q82 25 141.5 70t100 100.5t65.5 116.5t37 116.5t16 101.5t4 71q0 90 -26.5 169t-98.5 130q-72 49 -173 58t-242 9h-70l-76 -325h326l-45 -191h-324z" />
<glyph unicode="&#xd1;" horiz-adv-x="1449" d="M47 0l334 1446h244l442 -1067l227 1067h260l-333 -1446h-242l-442 1061l-226 -1061h-264zM637 1532q4 23 20.5 69t51.5 93q35 45 85 70.5t105 25.5q18 0 33.5 -2t34 -7t46 -14.5t72.5 -25.5q49 -18 84 -19q43 0 63.5 21.5t33.5 48.5h151q-33 -121 -104.5 -190.5 t-169.5 -69.5q-35 0 -61.5 7t-55.5 17q-74 29 -101.5 37.5t-47.5 8.5q-45 0 -62.5 -26t-26.5 -44h-151z" />
<glyph unicode="&#xd2;" horiz-adv-x="1536" d="M154 588q0 88 17 188.5t56 199.5t99.5 189t146.5 160t199.5 111t259.5 41q166 0 279.5 -55.5t185 -144.5t103.5 -199.5t32 -219.5q0 -59 -7.5 -117.5t-19.5 -115.5q-33 -137 -94 -255t-149 -204q-68 -66 -138.5 -104.5t-138 -59t-128 -27t-107.5 -6.5q-178 0 -293 60.5 t-182.5 151.5t-94 199.5t-26.5 207.5zM430 594q0 -188 95.5 -285.5t244.5 -97.5q90 0 158.5 28.5t119 72.5t84 98.5t55 105.5t34 93t16.5 65q10 47 17.5 96t7.5 96q0 78 -19.5 146.5t-60.5 119t-104.5 80t-151.5 29.5q-23 0 -57.5 -3t-76.5 -16.5t-88.5 -40t-89.5 -71.5 q-37 -41 -70.5 -101.5t-59 -129t-40 -143t-14.5 -142.5zM801 1784h305l70 -244h-207z" />
<glyph unicode="&#xd3;" horiz-adv-x="1536" d="M154 588q0 88 17 188.5t56 199.5t99.5 189t146.5 160t199.5 111t259.5 41q166 0 279.5 -55.5t185 -144.5t103.5 -199.5t32 -219.5q0 -59 -7.5 -117.5t-19.5 -115.5q-33 -137 -94 -255t-149 -204q-68 -66 -138.5 -104.5t-138 -59t-128 -27t-107.5 -6.5q-178 0 -293 60.5 t-182.5 151.5t-94 199.5t-26.5 207.5zM430 594q0 -188 95.5 -285.5t244.5 -97.5q90 0 158.5 28.5t119 72.5t84 98.5t55 105.5t34 93t16.5 65q10 47 17.5 96t7.5 96q0 78 -19.5 146.5t-60.5 119t-104.5 80t-151.5 29.5q-23 0 -57.5 -3t-76.5 -16.5t-88.5 -40t-89.5 -71.5 q-37 -41 -70.5 -101.5t-59 -129t-40 -143t-14.5 -142.5zM901 1534l135 250h332l-260 -250h-207z" />
<glyph unicode="&#xd4;" horiz-adv-x="1536" d="M154 588q0 88 17 188.5t56 199.5t99.5 189t146.5 160t199.5 111t259.5 41q166 0 279.5 -55.5t185 -144.5t103.5 -199.5t32 -219.5q0 -59 -7.5 -117.5t-19.5 -115.5q-33 -137 -94 -255t-149 -204q-68 -66 -138.5 -104.5t-138 -59t-128 -27t-107.5 -6.5q-178 0 -293 60.5 t-182.5 151.5t-94 199.5t-26.5 207.5zM430 594q0 -188 95.5 -285.5t244.5 -97.5q90 0 158.5 28.5t119 72.5t84 98.5t55 105.5t34 93t16.5 65q10 47 17.5 96t7.5 96q0 78 -19.5 146.5t-60.5 119t-104.5 80t-151.5 29.5q-23 0 -57.5 -3t-76.5 -16.5t-88.5 -40t-89.5 -71.5 q-37 -41 -70.5 -101.5t-59 -129t-40 -143t-14.5 -142.5zM692 1540l260 250h271l147 -250h-231l-64 133l-121 -133h-262z" />
<glyph unicode="&#xd5;" horiz-adv-x="1536" d="M154 588q0 88 17 188.5t56 199.5t99.5 189t146.5 160t199.5 111t259.5 41q166 0 279.5 -55.5t185 -144.5t103.5 -199.5t32 -219.5q0 -59 -7.5 -117.5t-19.5 -115.5q-33 -137 -94 -255t-149 -204q-68 -66 -138.5 -104.5t-138 -59t-128 -27t-107.5 -6.5q-178 0 -293 60.5 t-182.5 151.5t-94 199.5t-26.5 207.5zM430 594q0 -188 95.5 -285.5t244.5 -97.5q90 0 158.5 28.5t119 72.5t84 98.5t55 105.5t34 93t16.5 65q10 47 17.5 96t7.5 96q0 78 -19.5 146.5t-60.5 119t-104.5 80t-151.5 29.5q-23 0 -57.5 -3t-76.5 -16.5t-88.5 -40t-89.5 -71.5 q-37 -41 -70.5 -101.5t-59 -129t-40 -143t-14.5 -142.5zM647 1532q4 23 20.5 69t51.5 93q35 45 85 70.5t105 25.5q18 0 33.5 -2t34 -7t46.5 -14.5t73 -25.5q49 -18 84 -19q43 0 63.5 21.5t32.5 48.5h151q-33 -121 -104.5 -190.5t-169.5 -69.5q-35 0 -61.5 7t-55.5 17 q-74 29 -101.5 37.5t-47.5 8.5q-45 0 -62.5 -26t-25.5 -44h-152z" />
<glyph unicode="&#xd6;" horiz-adv-x="1536" d="M154 588q0 88 17 188.5t56 199.5t99.5 189t146.5 160t199.5 111t259.5 41q166 0 279.5 -55.5t185 -144.5t103.5 -199.5t32 -219.5q0 -59 -7.5 -117.5t-19.5 -115.5q-33 -137 -94 -255t-149 -204q-68 -66 -138.5 -104.5t-138 -59t-128 -27t-107.5 -6.5q-178 0 -293 60.5 t-182.5 151.5t-94 199.5t-26.5 207.5zM430 594q0 -188 95.5 -285.5t244.5 -97.5q90 0 158.5 28.5t119 72.5t84 98.5t55 105.5t34 93t16.5 65q10 47 17.5 96t7.5 96q0 78 -19.5 146.5t-60.5 119t-104.5 80t-151.5 29.5q-23 0 -57.5 -3t-76.5 -16.5t-88.5 -40t-89.5 -71.5 q-37 -41 -70.5 -101.5t-59 -129t-40 -143t-14.5 -142.5zM637 1536l57 254h258l-57 -254h-258zM1112 1536l57 254h261l-60 -254h-258z" />
<glyph unicode="&#xd7;" horiz-adv-x="1366" d="M215 205l391 393l-391 393l152 152l391 -393l393 393l152 -152l-394 -393l394 -393l-152 -152l-393 393l-391 -393z" />
<glyph unicode="&#xd8;" horiz-adv-x="1536" d="M123 68l135 141q-33 49 -53.5 101t-31.5 103.5t-15 98.5t-4 84q0 90 18 189.5t58 197.5t102.5 187.5t147.5 158t195.5 108.5t248.5 40q127 0 233.5 -35t194.5 -121l121 125l83 -84l-133 -133q55 -86 80 -179.5t25 -197.5q0 -84 -17.5 -181.5t-56.5 -195.5t-99.5 -189 t-147.5 -162t-200.5 -113t-258.5 -42q-121 0 -223.5 34t-188.5 112l-129 -129zM422 618q0 -86 13.5 -135t21.5 -71l721 733q-53 57 -115 82.5t-139 25.5q-119 0 -212.5 -54t-158 -143t-98 -203t-33.5 -235zM522 305q27 -37 65 -56.5t74.5 -28.5t67.5 -11t45 -2 q127 0 220 62.5t153.5 158.5t89.5 212t29 224q0 74 -9.5 113t-17.5 61z" />
<glyph unicode="&#xd9;" horiz-adv-x="1409" d="M141 375q0 53 11.5 113.5t27.5 138.5l191 819h270l-186 -813q-23 -88 -31 -136t-8 -81q0 -68 28.5 -109t70.5 -62.5t87 -28.5t78 -7q84 0 140.5 23.5t90.5 52.5q57 47 82 111.5t47 162.5l205 887h273l-207 -899q-18 -78 -34.5 -137.5t-37 -107.5t-46.5 -89t-65 -78 q-66 -61 -138 -95t-138 -49.5t-117 -18.5t-76 -3q-27 0 -69.5 2t-93 13.5t-103.5 32t-102 57.5q-63 47 -106.5 121.5t-43.5 179.5zM737 1784h305l70 -244h-207z" />
<glyph unicode="&#xda;" horiz-adv-x="1409" d="M141 375q0 53 11.5 113.5t27.5 138.5l191 819h270l-186 -813q-23 -88 -31 -136t-8 -81q0 -68 28.5 -109t70.5 -62.5t87 -28.5t78 -7q84 0 140.5 23.5t90.5 52.5q57 47 82 111.5t47 162.5l205 887h273l-207 -899q-18 -78 -34.5 -137.5t-37 -107.5t-46.5 -89t-65 -78 q-66 -61 -138 -95t-138 -49.5t-117 -18.5t-76 -3q-27 0 -69.5 2t-93 13.5t-103.5 32t-102 57.5q-63 47 -106.5 121.5t-43.5 179.5zM838 1534l135 250h332l-261 -250h-206z" />
<glyph unicode="&#xdb;" horiz-adv-x="1409" d="M141 375q0 53 11.5 113.5t27.5 138.5l191 819h270l-186 -813q-23 -88 -31 -136t-8 -81q0 -68 28.5 -109t70.5 -62.5t87 -28.5t78 -7q84 0 140.5 23.5t90.5 52.5q57 47 82 111.5t47 162.5l205 887h273l-207 -899q-18 -78 -34.5 -137.5t-37 -107.5t-46.5 -89t-65 -78 q-66 -61 -138 -95t-138 -49.5t-117 -18.5t-76 -3q-27 0 -69.5 2t-93 13.5t-103.5 32t-102 57.5q-63 47 -106.5 121.5t-43.5 179.5zM629 1540l260 250h270l148 -250h-232l-63 133l-121 -133h-262z" />
<glyph unicode="&#xdc;" horiz-adv-x="1409" d="M141 375q0 53 11.5 113.5t27.5 138.5l191 819h270l-186 -813q-23 -88 -31 -136t-8 -81q0 -68 28.5 -109t70.5 -62.5t87 -28.5t78 -7q84 0 140.5 23.5t90.5 52.5q57 47 82 111.5t47 162.5l205 887h273l-207 -899q-18 -78 -34.5 -137.5t-37 -107.5t-46.5 -89t-65 -78 q-66 -61 -138 -95t-138 -49.5t-117 -18.5t-76 -3q-27 0 -69.5 2t-93 13.5t-103.5 32t-102 57.5q-63 47 -106.5 121.5t-43.5 179.5zM592 1536l57 254h258l-57 -254h-258zM1067 1536l57 254h260l-59 -254h-258z" />
<glyph unicode="&#xdd;" horiz-adv-x="1236" d="M242 1446h280l197 -639l455 639h313l-670 -871l-133 -575h-274l133 575zM752 1534l135 250h332l-261 -250h-206z" />
<glyph unicode="&#xde;" horiz-adv-x="1236" d="M49 0l334 1448h270l-47 -205h123q125 0 207 -6t147 -35q109 -49 161 -144t52 -216q0 -113 -48 -227.5t-146 -194.5q-51 -41 -104.5 -63.5t-110 -34t-116.5 -13.5t-126 -2h-254l-72 -307h-270zM442 526h156q96 0 143 3t82 14q55 16 92 48t59.5 70.5t32 78.5t9.5 71 q0 23 -8.5 59.5t-42.5 71.5q-20 20 -42 31.5t-50.5 16.5t-68.5 7t-95 2h-158z" />
<glyph unicode="&#xdf;" d="M41 0l231 1006q27 113 55.5 195.5t96.5 148.5q66 63 143.5 88.5t175.5 25.5q94 0 172 -24.5t133.5 -67.5t85 -104.5t29.5 -134.5q0 -35 -11 -91.5t-44 -103.5t-73 -70.5t-80 -35t-76.5 -11.5h-61.5q29 -4 69 -13t81 -36q63 -39 97 -104.5t34 -163.5q0 -33 -7.5 -84 t-25.5 -109.5t-52 -118t-88.5 -107.5t-131 -79t-183.5 -31q-80 0 -138 14.5t-85 22.5l49 207q35 -10 79 -21.5t85 -11.5q88 0 138 44t75 101.5t31 109t6 67.5q0 80 -28.5 123t-66.5 63.5t-76 23.5t-58 3q-18 0 -35 -1t-33 -3l43 184q27 -4 45 -6t47 -2q78 0 124 24.5 t70.5 59.5t32 71.5t7.5 61.5q0 49 -16.5 81t-41 50.5t-54.5 24.5t-56 6q-47 0 -85 -16.5t-67 -43.5q-18 -18 -29.5 -37.5t-21.5 -48t-20.5 -68.5t-22.5 -95l-221 -963h-246z" />
<glyph unicode="&#xe0;" d="M57 272q0 72 29 137.5t82 110.5q68 61 153 78.5t181 28.5l190 16q35 2 56.5 5t37 6t25.5 6.5t20 7.5q10 41 12.5 54t2.5 30q0 18 -5 37.5t-24.5 36t-56.5 26.5t-101 10q-66 0 -103.5 -14t-58 -37t-27.5 -48.5t-11 -45.5h-262q4 49 23.5 90t45 73.5t54 56.5t51.5 36 q111 63 301 63q111 0 197.5 -23.5t136.5 -68.5q29 -25 45 -51.5t23 -52t9 -47t2 -35.5q0 -18 -2 -37t-6 -44.5t-12 -61t-21 -91.5l-43 -196q-10 -45 -18 -78t-12 -59.5t-6 -49t-2 -45.5q0 -37 4 -57.5t8 -38.5h-262q-4 18 -4 31.5v17.5v24.5t4 30.5q-47 -45 -121 -84.5 t-193 -39.5q-63 0 -119.5 13t-99.5 42q-59 39 -91 101.5t-32 135.5zM313 307q0 -55 42 -94t116 -39q47 0 95 17.5t88 41t67 45t29 29.5l41 178l-240 -28q-41 -4 -64.5 -7.5t-38 -5.5t-22.5 -5t-16 -5q-53 -18 -75 -55t-22 -72zM500 1448h305l78 -281h-203z" />
<glyph unicode="&#xe1;" d="M57 272q0 72 29 137.5t82 110.5q68 61 153 78.5t181 28.5l190 16q35 2 56.5 5t37 6t25.5 6.5t20 7.5q10 41 12.5 54t2.5 30q0 18 -5 37.5t-24.5 36t-56.5 26.5t-101 10q-66 0 -103.5 -14t-58 -37t-27.5 -48.5t-11 -45.5h-262q4 49 23.5 90t45 73.5t54 56.5t51.5 36 q111 63 301 63q111 0 197.5 -23.5t136.5 -68.5q29 -25 45 -51.5t23 -52t9 -47t2 -35.5q0 -18 -2 -37t-6 -44.5t-12 -61t-21 -91.5l-43 -196q-10 -45 -18 -78t-12 -59.5t-6 -49t-2 -45.5q0 -37 4 -57.5t8 -38.5h-262q-4 18 -4 31.5v17.5v24.5t4 30.5q-47 -45 -121 -84.5 t-193 -39.5q-63 0 -119.5 13t-99.5 42q-59 39 -91 101.5t-32 135.5zM313 307q0 -55 42 -94t116 -39q47 0 95 17.5t88 41t67 45t29 29.5l41 178l-240 -28q-41 -4 -64.5 -7.5t-38 -5.5t-22.5 -5t-16 -5q-53 -18 -75 -55t-22 -72zM621 1167l147 281h338l-266 -281h-219z" />
<glyph unicode="&#xe2;" d="M57 272q0 72 29 137.5t82 110.5q68 61 153 78.5t181 28.5l190 16q35 2 56.5 5t37 6t25.5 6.5t20 7.5q10 41 12.5 54t2.5 30q0 18 -5 37.5t-24.5 36t-56.5 26.5t-101 10q-66 0 -103.5 -14t-58 -37t-27.5 -48.5t-11 -45.5h-262q4 49 23.5 90t45 73.5t54 56.5t51.5 36 q111 63 301 63q111 0 197.5 -23.5t136.5 -68.5q29 -25 45 -51.5t23 -52t9 -47t2 -35.5q0 -18 -2 -37t-6 -44.5t-12 -61t-21 -91.5l-43 -196q-10 -45 -18 -78t-12 -59.5t-6 -49t-2 -45.5q0 -37 4 -57.5t8 -38.5h-262q-4 18 -4 31.5v17.5v24.5t4 30.5q-47 -45 -121 -84.5 t-193 -39.5q-63 0 -119.5 13t-99.5 42q-59 39 -91 101.5t-32 135.5zM313 307q0 -55 42 -94t116 -39q47 0 95 17.5t88 41t67 45t29 29.5l41 178l-240 -28q-41 -4 -64.5 -7.5t-38 -5.5t-22.5 -5t-16 -5q-53 -18 -75 -55t-22 -72zM402 1169l282 277h254l148 -277h-211l-78 158 l-135 -158h-260z" />
<glyph unicode="&#xe3;" d="M57 272q0 72 29 137.5t82 110.5q68 61 153 78.5t181 28.5l190 16q35 2 56.5 5t37 6t25.5 6.5t20 7.5q10 41 12.5 54t2.5 30q0 18 -5 37.5t-24.5 36t-56.5 26.5t-101 10q-66 0 -103.5 -14t-58 -37t-27.5 -48.5t-11 -45.5h-262q4 49 23.5 90t45 73.5t54 56.5t51.5 36 q111 63 301 63q111 0 197.5 -23.5t136.5 -68.5q29 -25 45 -51.5t23 -52t9 -47t2 -35.5q0 -18 -2 -37t-6 -44.5t-12 -61t-21 -91.5l-43 -196q-10 -45 -18 -78t-12 -59.5t-6 -49t-2 -45.5q0 -37 4 -57.5t8 -38.5h-262q-4 18 -4 31.5v17.5v24.5t4 30.5q-47 -45 -121 -84.5 t-193 -39.5q-63 0 -119.5 13t-99.5 42q-59 39 -91 101.5t-32 135.5zM313 307q0 -55 42 -94t116 -39q47 0 95 17.5t88 41t67 45t29 29.5l41 178l-240 -28q-41 -4 -64.5 -7.5t-38 -5.5t-22.5 -5t-16 -5q-53 -18 -75 -55t-22 -72zM391 1188q12 55 35 102t55.5 82t75.5 54.5 t99 19.5q18 0 33.5 -2t34 -7t45 -14.5t71.5 -25.5q25 -10 45 -15.5t39 -5.5q45 0 64.5 21.5t31.5 48.5h152q-33 -121 -103.5 -189.5t-171.5 -68.5q-35 0 -60.5 7t-56.5 17q-74 29 -101.5 36t-47.5 7q-45 0 -62.5 -25.5t-25.5 -41.5h-152z" />
<glyph unicode="&#xe4;" d="M57 272q0 72 29 137.5t82 110.5q68 61 153 78.5t181 28.5l190 16q35 2 56.5 5t37 6t25.5 6.5t20 7.5q10 41 12.5 54t2.5 30q0 18 -5 37.5t-24.5 36t-56.5 26.5t-101 10q-66 0 -103.5 -14t-58 -37t-27.5 -48.5t-11 -45.5h-262q4 49 23.5 90t45 73.5t54 56.5t51.5 36 q111 63 301 63q111 0 197.5 -23.5t136.5 -68.5q29 -25 45 -51.5t23 -52t9 -47t2 -35.5q0 -18 -2 -37t-6 -44.5t-12 -61t-21 -91.5l-43 -196q-10 -45 -18 -78t-12 -59.5t-6 -49t-2 -45.5q0 -37 4 -57.5t8 -38.5h-262q-4 18 -4 31.5v17.5v24.5t4 30.5q-47 -45 -121 -84.5 t-193 -39.5q-63 0 -119.5 13t-99.5 42q-59 39 -91 101.5t-32 135.5zM313 307q0 -55 42 -94t116 -39q47 0 95 17.5t88 41t67 45t29 29.5l41 178l-240 -28q-41 -4 -64.5 -7.5t-38 -5.5t-22.5 -5t-16 -5q-53 -18 -75 -55t-22 -72zM387 1165l60 252h258l-58 -252h-260zM864 1165 l58 252h258l-58 -252h-258z" />
<glyph unicode="&#xe5;" d="M57 272q0 72 29 137.5t82 110.5q68 61 153 78.5t181 28.5l190 16q35 2 56.5 5t37 6t25.5 6.5t20 7.5q10 41 12.5 54t2.5 30q0 18 -5 37.5t-24.5 36t-56.5 26.5t-101 10q-66 0 -103.5 -14t-58 -37t-27.5 -48.5t-11 -45.5h-262q4 49 23.5 90t45 73.5t54 56.5t51.5 36 q111 63 301 63q111 0 197.5 -23.5t136.5 -68.5q29 -25 45 -51.5t23 -52t9 -47t2 -35.5q0 -18 -2 -37t-6 -44.5t-12 -61t-21 -91.5l-43 -196q-10 -45 -18 -78t-12 -59.5t-6 -49t-2 -45.5q0 -37 4 -57.5t8 -38.5h-262q-4 18 -4 31.5v17.5v24.5t4 30.5q-47 -45 -121 -84.5 t-193 -39.5q-63 0 -119.5 13t-99.5 42q-59 39 -91 101.5t-32 135.5zM313 307q0 -55 42 -94t116 -39q47 0 95 17.5t88 41t67 45t29 29.5l41 178l-240 -28q-41 -4 -64.5 -7.5t-38 -5.5t-22.5 -5t-16 -5q-53 -18 -75 -55t-22 -72zM590 1276q0 39 14.5 73.5t40 60.5t60.5 40 t74 14t73.5 -14t60 -40t40 -60.5t14.5 -73.5t-14.5 -74t-40 -60.5t-60.5 -40t-73 -14.5q-39 0 -74 14.5t-60.5 40t-40 60.5t-14.5 74zM686 1276q0 -39 27 -65.5t66 -26.5t65.5 26.5t26.5 65.5t-27 65.5t-65 26.5q-39 0 -66 -26.5t-27 -65.5z" />
<glyph unicode="&#xe6;" horiz-adv-x="1748" d="M53 272q0 31 7.5 68t26.5 76t53 74.5t85 64.5q66 35 138.5 48t175.5 24l272 26q4 41 4 54.5v19.5q0 27 -5 52.5t-23.5 46t-54.5 33.5t-97 13q-20 0 -52 -4t-64 -18t-56.5 -42t-30.5 -75h-258q12 66 46 123t92.5 99t139 67t187.5 25q94 0 182 -29t144 -103q27 20 58.5 44 t72.5 43.5t92 32t117 12.5q63 0 113 -11.5t85 -28t58.5 -33t35.5 -28.5q72 -66 97.5 -153.5t25.5 -178.5q0 -45 -4 -77.5t-8 -55.5h-702q-8 -35 -9 -80q0 -66 21.5 -108.5t53.5 -69t70 -38t72 -11.5q72 0 145 43t130 131l199 -119q-98 -133 -211 -194.5t-269 -61.5 q-86 0 -148.5 18.5t-105.5 45t-71.5 58.5t-46.5 57q-78 -86 -188.5 -133.5t-237.5 -47.5q-94 0 -162 27t-111 69t-63.5 96t-20.5 109zM303 295q0 -53 46 -90t118 -37q25 0 59.5 6t77.5 29q94 45 128 113.5t50 164.5l-188 -22q-47 -6 -77 -11.5t-48 -8.5t-30.5 -5t-24.5 -6 q-63 -23 -87 -60.5t-24 -72.5zM1044 655h441q-2 18 -7 54t-23.5 71t-56.5 60.5t-106 25.5q-98 0 -158.5 -56t-89.5 -155z" />
<glyph unicode="&#xe7;" horiz-adv-x="1024" d="M92 414q0 106 35 218.5t104.5 205t174 151t243.5 58.5q74 0 143.5 -19.5t126 -57.5t94.5 -96.5t50 -138.5l-232 -78q0 14 -4 45t-21.5 63t-53 55.5t-99.5 23.5q-80 0 -137 -40t-95 -100.5t-56.5 -133t-18.5 -136.5q0 -45 7 -88t32 -78q16 -23 55 -52.5t109 -29.5 q63 0 106 22.5t73 54.5t46.5 65.5t26.5 56.5l223 -94q-14 -29 -41 -78t-80 -100q-41 -41 -84 -65.5t-81 -39t-70.5 -20.5t-55.5 -11l-96 -129q86 6 130 -34.5t44 -92.5q0 -31 -18.5 -62.5t-54 -58t-88 -43t-117.5 -16.5q-51 0 -93.5 7.5t-89.5 21.5l19 82q33 -10 58.5 -16.5 t53.5 -6.5q61 0 88 22.5t27 41.5q0 16 -9 25.5t-23.5 14.5t-30 6t-29.5 1q-20 0 -34.5 -1t-39.5 -3l15 57l178 182q-20 2 -56 6.5t-77 18.5t-85 38.5t-83 65.5q-43 47 -76 123t-33 187z" />
<glyph unicode="&#xe8;" horiz-adv-x="1110" d="M94 422q0 90 29 199.5t93.5 204t171 158t263.5 63.5q125 0 208 -40t132 -103.5t69.5 -139.5t20.5 -146q0 -47 -5 -77.5t-11 -63.5h-711q-4 -10 -6 -28.5t-2 -42.5q0 -41 12.5 -82t40 -74t68.5 -53.5t100 -20.5q61 0 107.5 20.5t78 48t51 57.5t30.5 48l206 -127 q-8 -12 -25.5 -34.5t-45 -50t-65.5 -56.5t-89 -53q-66 -31 -132.5 -43.5t-129.5 -12.5q-102 0 -186 30t-144.5 86t-94.5 140t-34 193zM395 657h436q4 61 -12 101.5t-42.5 65t-59.5 33.5t-64 9q-98 0 -160.5 -58t-97.5 -151zM479 1448h305l78 -281h-203z" />
<glyph unicode="&#xe9;" horiz-adv-x="1110" d="M94 422q0 90 29 199.5t93.5 204t171 158t263.5 63.5q125 0 208 -40t132 -103.5t69.5 -139.5t20.5 -146q0 -47 -5 -77.5t-11 -63.5h-711q-4 -10 -6 -28.5t-2 -42.5q0 -41 12.5 -82t40 -74t68.5 -53.5t100 -20.5q61 0 107.5 20.5t78 48t51 57.5t30.5 48l206 -127 q-8 -12 -25.5 -34.5t-45 -50t-65.5 -56.5t-89 -53q-66 -31 -132.5 -43.5t-129.5 -12.5q-102 0 -186 30t-144.5 86t-94.5 140t-34 193zM395 657h436q4 61 -12 101.5t-42.5 65t-59.5 33.5t-64 9q-98 0 -160.5 -58t-97.5 -151zM600 1167l147 281h338l-266 -281h-219z" />
<glyph unicode="&#xea;" horiz-adv-x="1110" d="M94 422q0 90 29 199.5t93.5 204t171 158t263.5 63.5q125 0 208 -40t132 -103.5t69.5 -139.5t20.5 -146q0 -47 -5 -77.5t-11 -63.5h-711q-4 -10 -6 -28.5t-2 -42.5q0 -41 12.5 -82t40 -74t68.5 -53.5t100 -20.5q61 0 107.5 20.5t78 48t51 57.5t30.5 48l206 -127 q-8 -12 -25.5 -34.5t-45 -50t-65.5 -56.5t-89 -53q-66 -31 -132.5 -43.5t-129.5 -12.5q-102 0 -186 30t-144.5 86t-94.5 140t-34 193zM381 1169l282 277h254l148 -277h-211l-78 158l-135 -158h-260zM395 657h436q4 61 -12 101.5t-42.5 65t-59.5 33.5t-64 9q-98 0 -160.5 -58 t-97.5 -151z" />
<glyph unicode="&#xeb;" horiz-adv-x="1110" d="M94 422q0 90 29 199.5t93.5 204t171 158t263.5 63.5q125 0 208 -40t132 -103.5t69.5 -139.5t20.5 -146q0 -47 -5 -77.5t-11 -63.5h-711q-4 -10 -6 -28.5t-2 -42.5q0 -41 12.5 -82t40 -74t68.5 -53.5t100 -20.5q61 0 107.5 20.5t78 48t51 57.5t30.5 48l206 -127 q-8 -12 -25.5 -34.5t-45 -50t-65.5 -56.5t-89 -53q-66 -31 -132.5 -43.5t-129.5 -12.5q-102 0 -186 30t-144.5 86t-94.5 140t-34 193zM366 1165l60 252h258l-58 -252h-260zM395 657h436q4 61 -12 101.5t-42.5 65t-59.5 33.5t-64 9q-98 0 -160.5 -58t-97.5 -151zM843 1165 l58 252h258l-58 -252h-258z" />
<glyph unicode="&#xec;" horiz-adv-x="512" d="M41 0l233 1018h246l-233 -1018h-246zM178 1448h305l78 -281h-203z" />
<glyph unicode="&#xed;" horiz-adv-x="512" d="M41 0l233 1018h246l-233 -1018h-246zM299 1167l147 281h338l-266 -281h-219z" />
<glyph unicode="&#xee;" horiz-adv-x="512" d="M41 0l233 1018h246l-233 -1018h-246zM80 1169l282 277h254l148 -277h-211l-78 158l-135 -158h-260z" />
<glyph unicode="&#xef;" horiz-adv-x="512" d="M41 0l233 1018h246l-233 -1018h-246zM65 1165l60 252h258l-58 -252h-260zM542 1165l58 252h258l-58 -252h-258z" />
<glyph unicode="&#xf0;" d="M88 410q0 82 25.5 182t85.5 192q51 82 113.5 133.5t124 80t117.5 39t97 10.5q55 0 94 -11.5t65 -28t42 -33t25 -28.5q-10 49 -24.5 102.5t-47.5 125.5l-318 -62l-34 115l286 59q-12 18 -21 30.5t-18.5 25t-21.5 27.5t-31 40l215 68q20 -31 33.5 -50.5t23 -35t18.5 -29.5 t19 -33l172 35l41 -121l-153 -29q104 -244 104 -509q0 -145 -35.5 -278.5t-109.5 -234t-186.5 -160t-268.5 -59.5q-133 0 -217 47.5t-131 115t-65.5 142t-18.5 132.5zM336 422q0 -104 53 -171t156 -67q104 0 190 79t121 235q12 55 12 116t-16 104.5t-45 71t-65.5 40 t-77.5 12.5q-102 0 -167 -53.5t-101 -124t-48 -140t-12 -102.5z" />
<glyph unicode="&#xf1;" d="M41 -2l233 1020h234l-27 -113q14 14 41 36t67 43.5t92 36.5t118 15q72 0 128 -23.5t91 -58.5q25 -27 38 -57.5t20 -58t8 -51t1 -35.5q0 -55 -9 -104.5t-21 -104.5l-125 -545h-250l117 506q14 63 21 103t7 75q0 8 -2 31.5t-14 48t-39 43t-76 18.5q-66 0 -121 -34.5 t-86 -75.5q-37 -51 -58 -122t-42 -161l-100 -432h-246zM391 1188q12 55 35 102t55.5 82t75.5 54.5t99 19.5q18 0 33.5 -2t34 -7t45 -14.5t71.5 -25.5q25 -10 45 -15.5t39 -5.5q45 0 64.5 21.5t31.5 48.5h152q-33 -121 -103.5 -189.5t-171.5 -68.5q-35 0 -60.5 7t-56.5 17 q-74 29 -101.5 36t-47.5 7q-45 0 -62.5 -25.5t-25.5 -41.5h-152z" />
<glyph unicode="&#xf2;" d="M88 412q0 66 15.5 138.5t46 141t74.5 131t102 107.5q74 57 168 87t184 30q84 0 163 -26t139 -78t97 -132t37 -190q0 -41 -5 -82t-15 -82q-29 -129 -86.5 -221.5t-134 -150.5t-167 -85t-182.5 -27q-129 0 -214 45t-134 113t-68.5 143.5t-19.5 137.5zM336 422 q0 -104 53 -171t156 -67q104 0 190 79t121 235q12 57 12 116q0 61 -16 104.5t-45 71t-65.5 40t-77.5 12.5q-102 0 -167 -53.5t-101 -124t-48 -140t-12 -102.5zM500 1448h305l78 -281h-203z" />
<glyph unicode="&#xf3;" d="M88 412q0 66 15.5 138.5t46 141t74.5 131t102 107.5q74 57 168 87t184 30q84 0 163 -26t139 -78t97 -132t37 -190q0 -41 -5 -82t-15 -82q-29 -129 -86.5 -221.5t-134 -150.5t-167 -85t-182.5 -27q-129 0 -214 45t-134 113t-68.5 143.5t-19.5 137.5zM336 422 q0 -104 53 -171t156 -67q104 0 190 79t121 235q12 57 12 116q0 61 -16 104.5t-45 71t-65.5 40t-77.5 12.5q-102 0 -167 -53.5t-101 -124t-48 -140t-12 -102.5zM621 1167l147 281h338l-266 -281h-219z" />
<glyph unicode="&#xf4;" d="M88 412q0 66 15.5 138.5t46 141t74.5 131t102 107.5q74 57 168 87t184 30q84 0 163 -26t139 -78t97 -132t37 -190q0 -41 -5 -82t-15 -82q-29 -129 -86.5 -221.5t-134 -150.5t-167 -85t-182.5 -27q-129 0 -214 45t-134 113t-68.5 143.5t-19.5 137.5zM336 422 q0 -104 53 -171t156 -67q104 0 190 79t121 235q12 57 12 116q0 61 -16 104.5t-45 71t-65.5 40t-77.5 12.5q-102 0 -167 -53.5t-101 -124t-48 -140t-12 -102.5zM402 1169l282 277h254l148 -277h-211l-78 158l-135 -158h-260z" />
<glyph unicode="&#xf5;" d="M88 412q0 66 15.5 138.5t46 141t74.5 131t102 107.5q74 57 168 87t184 30q84 0 163 -26t139 -78t97 -132t37 -190q0 -41 -5 -82t-15 -82q-29 -129 -86.5 -221.5t-134 -150.5t-167 -85t-182.5 -27q-129 0 -214 45t-134 113t-68.5 143.5t-19.5 137.5zM336 422 q0 -104 53 -171t156 -67q104 0 190 79t121 235q12 57 12 116q0 61 -16 104.5t-45 71t-65.5 40t-77.5 12.5q-102 0 -167 -53.5t-101 -124t-48 -140t-12 -102.5zM391 1188q12 55 35 102t55.5 82t75.5 54.5t99 19.5q18 0 33.5 -2t34 -7t45 -14.5t71.5 -25.5q25 -10 45 -15.5 t39 -5.5q45 0 64.5 21.5t31.5 48.5h152q-33 -121 -103.5 -189.5t-171.5 -68.5q-35 0 -60.5 7t-56.5 17q-74 29 -101.5 36t-47.5 7q-45 0 -62.5 -25.5t-25.5 -41.5h-152z" />
<glyph unicode="&#xf6;" d="M88 412q0 66 15.5 138.5t46 141t74.5 131t102 107.5q74 57 168 87t184 30q84 0 163 -26t139 -78t97 -132t37 -190q0 -41 -5 -82t-15 -82q-29 -129 -86.5 -221.5t-134 -150.5t-167 -85t-182.5 -27q-129 0 -214 45t-134 113t-68.5 143.5t-19.5 137.5zM336 422 q0 -104 53 -171t156 -67q104 0 190 79t121 235q12 57 12 116q0 61 -16 104.5t-45 71t-65.5 40t-77.5 12.5q-102 0 -167 -53.5t-101 -124t-48 -140t-12 -102.5zM368 1165l60 252h258l-58 -252h-260zM845 1165l58 252h258l-58 -252h-258z" />
<glyph unicode="&#xf7;" horiz-adv-x="1366" d="M57 489v211h1364v-211h-1364zM600 264q0 59 40 99t99 40t99.5 -39.5t40.5 -99.5q0 -59 -40 -99t-100 -40q-59 0 -99 40t-40 99zM600 926q0 59 40 99t99 40t99.5 -40t40.5 -99t-40 -99.5t-100 -40.5q-59 0 -99 40.5t-40 99.5z" />
<glyph unicode="&#xf8;" d="M43 74l113 98q-37 55 -51.5 120.5t-14.5 133.5q0 104 35 214t106.5 200t179 148.5t255.5 58.5q100 0 184 -31t143 -96l99 88l71 -84l-106 -95q51 -90 51 -235q0 -117 -39 -228.5t-111.5 -198.5t-178 -140.5t-240.5 -53.5q-88 0 -171 27t-147 86l-106 -92zM317 442 q0 -41 4.5 -64.5t12.5 -45.5l491 438q-63 78 -168 78q-55 0 -115.5 -25.5t-110.5 -77t-82 -127t-32 -176.5zM387 233q10 -12 42 -37.5t101 -25.5q66 0 128.5 27.5t111.5 83t79 135.5t30 184q0 25 -1 38t-6 28z" />
<glyph unicode="&#xf9;" d="M115 244q0 47 10 103t29 145l120 526h248l-114 -498q-18 -84 -26.5 -127t-8.5 -76q0 -35 13 -59.5t33.5 -39.5t45 -21.5t49.5 -6.5q45 0 88 18.5t78 53.5q59 59 87 149.5t50 184.5l96 422h248l-235 -1018h-230l27 109q-18 -18 -46 -41t-65 -41.5t-84 -31.5t-104 -13 q-53 0 -108.5 13t-100.5 44t-72.5 81t-27.5 124zM500 1448h305l78 -281h-203z" />
<glyph unicode="&#xfa;" d="M115 244q0 47 10 103t29 145l120 526h248l-114 -498q-18 -84 -26.5 -127t-8.5 -76q0 -35 13 -59.5t33.5 -39.5t45 -21.5t49.5 -6.5q45 0 88 18.5t78 53.5q59 59 87 149.5t50 184.5l96 422h248l-235 -1018h-230l27 109q-18 -18 -46 -41t-65 -41.5t-84 -31.5t-104 -13 q-53 0 -108.5 13t-100.5 44t-72.5 81t-27.5 124zM621 1167l147 281h338l-266 -281h-219z" />
<glyph unicode="&#xfb;" d="M115 244q0 47 10 103t29 145l120 526h248l-114 -498q-18 -84 -26.5 -127t-8.5 -76q0 -35 13 -59.5t33.5 -39.5t45 -21.5t49.5 -6.5q45 0 88 18.5t78 53.5q59 59 87 149.5t50 184.5l96 422h248l-235 -1018h-230l27 109q-18 -18 -46 -41t-65 -41.5t-84 -31.5t-104 -13 q-53 0 -108.5 13t-100.5 44t-72.5 81t-27.5 124zM402 1169l282 277h254l148 -277h-211l-78 158l-135 -158h-260z" />
<glyph unicode="&#xfc;" d="M115 244q0 47 10 103t29 145l120 526h248l-114 -498q-18 -84 -26.5 -127t-8.5 -76q0 -35 13 -59.5t33.5 -39.5t45 -21.5t49.5 -6.5q45 0 88 18.5t78 53.5q59 59 87 149.5t50 184.5l96 422h248l-235 -1018h-230l27 109q-18 -18 -46 -41t-65 -41.5t-84 -31.5t-104 -13 q-53 0 -108.5 13t-100.5 44t-72.5 81t-27.5 124zM366 1163l60 252h258l-58 -252h-260zM843 1163l58 252h258l-58 -252h-258z" />
<glyph unicode="&#xfd;" horiz-adv-x="937" d="M-94 -348l49 217q23 -4 49.5 -7t54.5 -3q29 0 56.5 8t56.5 37q10 12 24.5 35.5t14.5 27.5l-94 1053h250l26 -795l404 795h260l-580 -1053q-43 -80 -82 -142.5t-82 -105.5t-96 -64.5t-127 -21.5t-184 19zM514 1167l147 281h338l-266 -281h-219z" />
<glyph unicode="&#xfe;" horiz-adv-x="1193" d="M-41 -367l418 1815h241l-124 -541q51 72 125.5 106t160.5 34q70 0 137.5 -25t120 -76t85 -133t32.5 -195q0 -111 -34 -224t-101.5 -207.5t-168.5 -154t-235 -59.5q-80 0 -133 17.5t-88 42t-53 50.5t-27 40l-112 -490h-244zM391 422q0 -74 22.5 -119t54.5 -70.5t68.5 -35 t67.5 -9.5q61 0 109.5 26t83 69t59.5 98.5t37 116.5q4 29 8 57.5t4 56.5q0 113 -56 171.5t-153 58.5q-74 0 -124 -30t-83.5 -74t-53 -96t-30 -99t-12.5 -81t-2 -40z" />
<glyph unicode="&#xff;" horiz-adv-x="937" d="M-94 -348l49 217q23 -4 49.5 -7t54.5 -3q29 0 56.5 8t56.5 37q10 12 24.5 35.5t14.5 27.5l-94 1053h250l26 -795l404 795h260l-580 -1053q-43 -80 -82 -142.5t-82 -105.5t-96 -64.5t-127 -21.5t-184 19zM280 1165l60 252h258l-58 -252h-260zM757 1165l58 252h258 l-58 -252h-258z" />
<glyph unicode="&#x152;" horiz-adv-x="2174" d="M154 557q0 154 49 317.5t148.5 297t250 219.5t352.5 86q70 0 126.5 -9.5t104.5 -27t90 -43t83 -58.5l22 107h922l-53 -238h-643l-82 -352h606l-53 -233h-607l-88 -383h748l-55 -240h-1004l21 84q-61 -39 -152.5 -75t-228.5 -36q-119 0 -220.5 36t-176 108.5t-117.5 182.5 t-43 257zM436 575q0 -104 29 -174.5t76 -114.5t107.5 -63.5t125.5 -19.5q98 0 172 36.5t127 94.5q37 39 67.5 87t53.5 99t40.5 102.5t27.5 98.5t17 95t7 95q0 76 -21.5 150t-84.5 127q-41 35 -99.5 53.5t-117.5 18.5q-53 0 -109.5 -14.5t-108.5 -45.5q-92 -55 -151 -138 t-94 -172t-49.5 -173t-14.5 -142z" />
<glyph unicode="&#x153;" horiz-adv-x="1835" d="M92 414q0 86 24.5 181t73.5 179q59 100 134 154.5t144 81t122 32t69 5.5t56.5 -4.5t89.5 -23t101 -57t93 -108.5q141 193 385 193q100 0 176 -29t126 -74q76 -72 98 -165t22 -181q0 -41 -3 -69.5l-5 -47.5h-715q-4 -14 -6 -35.5t-2 -46.5q0 -29 6 -64.5t27 -64.5 q27 -43 81 -69.5t116 -26.5q55 0 99 19.5t76.5 47t55.5 57.5t37 52l194 -104q-82 -129 -203.5 -201t-281.5 -72q-92 0 -156.5 22.5t-105.5 55.5t-65.5 67t-36.5 58q-16 -23 -47 -57.5t-78.5 -67.5t-114 -55.5t-154.5 -22.5q-86 0 -163.5 27t-138 80t-95.5 136t-35 198z M332 424q0 -104 52 -173t153 -69q94 0 153.5 44t93 101.5t48 112t18.5 74.5q4 23 7 46.5t3 47.5q0 29 -8 69t-29.5 75.5t-62.5 61.5t-105 26q-86 0 -147.5 -42t-100 -105.5t-57 -135.5t-18.5 -133zM1118 649h449q2 39 -5.5 76t-29 66.5t-59 47t-97.5 17.5q-92 0 -159.5 -52 t-98.5 -155z" />
<glyph unicode="&#x178;" horiz-adv-x="1236" d="M242 1446h280l197 -639l455 639h313l-670 -871l-133 -575h-274l133 575zM514 1536l57 254h258l-57 -254h-258zM989 1536l58 254h260l-60 -254h-258z" />
<glyph unicode="&#x2c6;" horiz-adv-x="555" d="M-63 1169l282 277h254l148 -277h-211l-78 158l-135 -158h-260z" />
<glyph unicode="&#x2dc;" horiz-adv-x="555" d="M-113 1188q12 55 35 102t55.5 82t75.5 54.5t99 19.5q18 0 33.5 -2t34 -7t45 -14.5t71.5 -25.5q25 -10 45 -15.5t39 -5.5q45 0 64.5 21.5t31.5 48.5h152q-33 -121 -103.5 -189.5t-171.5 -68.5q-35 0 -60.5 7t-56.5 17q-74 29 -101.5 36t-47.5 7q-45 0 -62.5 -25.5 t-25.5 -41.5h-152z" />
<glyph unicode="&#x2000;" horiz-adv-x="945" />
<glyph unicode="&#x2001;" horiz-adv-x="1890" />
<glyph unicode="&#x2002;" horiz-adv-x="945" />
<glyph unicode="&#x2003;" horiz-adv-x="1890" />
<glyph unicode="&#x2004;" horiz-adv-x="630" />
<glyph unicode="&#x2005;" horiz-adv-x="472" />
<glyph unicode="&#x2006;" horiz-adv-x="315" />
<glyph unicode="&#x2007;" horiz-adv-x="315" />
<glyph unicode="&#x2008;" horiz-adv-x="236" />
<glyph unicode="&#x2009;" horiz-adv-x="378" />
<glyph unicode="&#x200a;" horiz-adv-x="105" />
<glyph unicode="&#x2010;" horiz-adv-x="768" d="M102 487l56 236h594l-54 -236h-596z" />
<glyph unicode="&#x2011;" horiz-adv-x="768" d="M102 487l56 236h594l-54 -236h-596z" />
<glyph unicode="&#x2012;" horiz-adv-x="768" d="M102 487l56 236h594l-54 -236h-596z" />
<glyph unicode="&#x2013;" d="M102 487l56 236h977l-54 -236h-979z" />
<glyph unicode="&#x2014;" horiz-adv-x="1492" d="M102 487l56 236h1319l-54 -236h-1321z" />
<glyph unicode="&#x2018;" horiz-adv-x="512" d="M233 879l64 276q10 43 19.5 76t19.5 59.5t23.5 47t33.5 40.5q25 25 51.5 38.5t50 19.5t43 8t31.5 2h22.5t26.5 -2l-28 -129q-66 -6 -89.5 -42t-41.5 -118h110l-63 -276h-273z" />
<glyph unicode="&#x2019;" horiz-adv-x="512" d="M246 881l30 129q33 2 53.5 12t35 28.5t23.5 48t20 70.5h-111l63 277h271l-64 -277q-10 -43 -18 -75.5t-18.5 -59t-24.5 -47t-35 -41.5q-49 -47 -100.5 -57t-75.5 -10h-21.5t-27.5 2z" />
<glyph unicode="&#x201a;" horiz-adv-x="512" d="M-25 -289l31 129q68 6 90.5 43t40.5 117h-110l63 276h270l-63 -276q-10 -43 -18.5 -76t-18.5 -59.5t-24.5 -47t-34.5 -40.5q-49 -47 -100.5 -57.5t-75.5 -10.5h-21.5t-28.5 2z" />
<glyph unicode="&#x201c;" horiz-adv-x="894" d="M227 879l66 276q10 43 18 76t18.5 59.5t24 47t33.5 40.5q25 25 51.5 38.5t50 19.5t43 8t31.5 2h23.5t25.5 -2l-28 -129q-33 -4 -53.5 -13.5t-35 -28t-24.5 -48t-18 -70.5h110l-63 -276h-273zM610 879l64 276q10 43 18 76t18.5 59.5t24 47t35.5 40.5q49 47 100.5 57.5 t75.5 10.5h22.5t26.5 -2l-30 -129q-33 -4 -53.5 -13.5t-35 -28t-23.5 -48t-19 -70.5h110l-63 -276h-271z" />
<glyph unicode="&#x201d;" horiz-adv-x="894" d="M246 881l30 129q33 2 53.5 12t35 28.5t23.5 48t20 70.5h-111l63 277h271l-64 -277q-10 -43 -18 -75.5t-18.5 -59t-24.5 -47t-35 -41.5q-49 -47 -100.5 -57t-75.5 -10h-21.5t-27.5 2zM629 881l28 129q33 2 53.5 12t35 28.5t23.5 48t19 70.5h-110l63 277h273l-64 -277 q-10 -43 -19 -75.5t-19.5 -59t-24 -47t-33.5 -41.5q-25 -25 -51.5 -38t-50 -19t-43 -8t-31.5 -2h-23.5t-25.5 2z" />
<glyph unicode="&#x201e;" horiz-adv-x="894" d="M-23 -289l29 129q68 6 90.5 43t40.5 117h-110l65 276h270l-63 -276q-10 -43 -19.5 -76t-19.5 -59.5t-23.5 -47t-33.5 -40.5q-51 -47 -101.5 -57.5t-74.5 -10.5h-22.5t-27.5 2zM358 -289l31 129q68 6 90.5 43t40.5 117h-110l63 276h270l-63 -276q-10 -43 -18.5 -76 t-18.5 -59.5t-24.5 -47t-34.5 -40.5q-49 -47 -100.5 -57.5t-75.5 -10.5h-21.5t-28.5 2z" />
<glyph unicode="&#x2022;" horiz-adv-x="681" d="M125 721q0 59 22.5 112.5t62.5 93.5t93 62.5t113 22.5q59 0 112.5 -22.5t93.5 -62.5t62.5 -93.5t22.5 -112.5t-22.5 -112.5t-62.5 -93.5t-93.5 -62.5t-112.5 -22.5t-112.5 22.5t-93.5 62.5t-62.5 93.5t-22.5 112.5z" />
<glyph unicode="&#x2026;" horiz-adv-x="2048" d="M113 0l63 276h270l-63 -276h-270zM795 0l63 276h270l-63 -276h-270zM1477 0l63 276h270l-63 -276h-270z" />
<glyph unicode="&#x202f;" horiz-adv-x="378" />
<glyph unicode="&#x2039;" horiz-adv-x="468" d="M82 489l55 238l395 256l-65 -287l-197 -102l146 -117l-58 -248z" />
<glyph unicode="&#x203a;" horiz-adv-x="468" d="M20 229l66 287l197 102l-146 117l58 248l276 -262l-55 -238z" />
<glyph unicode="&#x205f;" horiz-adv-x="472" />
<glyph unicode="&#x2122;" horiz-adv-x="1406" d="M72 1327v119h569v-119h-209v-561h-145v561h-215zM698 766v680h189l164 -514l155 514h191v-680h-142l7 391q0 51 3 86t5 53l-31 -112l-127 -418h-129l-131 418l-31 108q4 -29 6 -61.5t4 -73.5l9 -391h-142z" />
<glyph unicode="&#xe000;" horiz-adv-x="1013" d="M0 0v1014h1014v-1014h-1014z" />
</font>
</defs>
</svg>
